<svg width="12" height="8" viewBox="0 0 12 8" fill="none" xmlns="http://www.w3.org/2000/svg">
<path fill-rule="evenodd" clip-rule="evenodd" d="M11.6796 0.293656C11.7812 0.386506 11.8617 0.496808 11.9167 0.618244C11.9717 0.739681 12 0.869864 12 1.00134C12 1.13282 11.9717 1.263 11.9167 1.38444C11.8617 1.50587 11.7812 1.61617 11.6796 1.70902L5.13595 7.70634C5.03465 7.79943 4.9143 7.87328 4.7818 7.92367C4.6493 7.97406 4.50726 8 4.3638 8C4.22035 8 4.07831 7.97406 3.94581 7.92367C3.81331 7.87328 3.69296 7.79943 3.59165 7.70634L0.319835 4.70768C0.218435 4.61475 0.138 4.50442 0.0831224 4.383C0.0282451 4.26157 0 4.13143 0 4C0 3.86857 0.0282451 3.73843 0.0831224 3.617C0.138 3.49558 0.218435 3.38525 0.319835 3.29232C0.524622 3.10463 0.802372 2.99918 1.09198 2.99918C1.23539 2.99918 1.37738 3.02507 1.50987 3.07537C1.64236 3.12566 1.76273 3.19938 1.86413 3.29232L4.3638 5.58529L10.1353 0.293656C10.2366 0.200571 10.357 0.126719 10.4895 0.0763285C10.6219 0.0259381 10.764 0 10.9074 0C11.0509 0 11.1929 0.0259381 11.3254 0.0763285C11.4579 0.126719 11.5783 0.200571 11.6796 0.293656Z" fill="white"/>
</svg>
