<?xml version="1.0" encoding="utf-8"?>
<!-- Generator: Adobe Illustrator 25.3.1, SVG Export Plug-In . SVG Version: 6.00 Build 0)  -->
<svg version="1.1" id="Capa_1" xmlns="http://www.w3.org/2000/svg" xmlns:xlink="http://www.w3.org/1999/xlink" x="0px" y="0px"
	 viewBox="0 0 20 14" style="enable-background:new 0 0 20 14;" xml:space="preserve">
<style type="text/css">
	.st0{fill:#D1D1D1;}
</style>
<g>
	<path class="st0" d="M10,0C8.5,0,7.1,0.4,5.9,1l2,2C8.6,2.7,9.3,2.5,10,2.5c1.2,0,2.3,0.5,3.1,1.3c0.8,0.8,1.3,1.9,1.3,3.1
		c0,0.7-0.2,1.4-0.5,2.1l2.4,2.4c2.4-2,3.8-4.4,3.8-4.4S16.2,0,10,0z"/>
	<path class="st0" d="M13.1,6.9c0-0.8-0.3-1.6-0.9-2.2c-0.6-0.6-1.4-0.9-2.2-0.9C9.6,3.7,9.2,3.8,8.9,4l4,4
		C13.1,7.6,13.1,7.3,13.1,6.9z"/>
	<path class="st0" d="M13.1,10l-0.9-0.9L7.8,4.7L6.9,3.8L4.8,1.7L4.1,0.9L3.2,1.8l0.6,0.6C1.4,4.4,0,6.9,0,6.9s3.8,6.9,10,6.9
		c1.5,0,2.9-0.4,4.1-1l1,1l0.9-0.9l-0.7-0.7L13.1,10z M10,11.2c-1.2,0-2.3-0.5-3.1-1.3C6.1,9.1,5.6,8,5.6,6.9c0-0.7,0.2-1.4,0.5-2.1
		l0.9,0.9C6.9,6.1,6.9,6.5,6.9,6.9c0,0.8,0.3,1.6,0.9,2.2C8.4,9.7,9.2,10,10,10c0.4,0,0.8-0.1,1.1-0.2l0.9,0.9
		C11.4,11.1,10.7,11.2,10,11.2z"/>
</g>
</svg>
