<svg width="21" height="9" viewBox="0 0 21 9" fill="none" xmlns="http://www.w3.org/2000/svg">
<path d="M4.74118 9C3.89257 8.99984 3.05956 8.78359 2.32904 8.37381C1.59852 7.96404 0.997262 7.37575 0.587984 6.67033C0.178707 5.9649 -0.0235928 5.16818 0.00218968 4.36328C0.0279722 3.55838 0.280892 2.77479 0.734565 2.09426C1.18824 1.41372 1.82604 0.861178 2.58144 0.494264C3.33684 0.12735 4.18215 -0.0404908 5.0292 0.0082526C5.87625 0.056996 6.694 0.320537 7.39714 0.771382C8.10028 1.22223 8.66304 1.84386 9.02673 2.57143L18.9676 2.57143L21 4.5L18.9676 6.42857L17.6127 5.14286L16.2578 6.42857L14.9029 5.14286L13.548 6.42857L12.1931 5.14286L10.8382 6.42857H9.02673C8.64207 7.19811 8.03515 7.84825 7.27653 8.30344C6.51791 8.75863 5.63873 9.00018 4.74118 9ZM3.38628 5.78572C3.74562 5.78572 4.09024 5.65026 4.34434 5.40914C4.59843 5.16802 4.74118 4.84099 4.74118 4.5C4.74118 4.15901 4.59843 3.83198 4.34434 3.59086C4.09024 3.34975 3.74562 3.21429 3.38628 3.21429C3.02693 3.21429 2.68231 3.34975 2.42822 3.59086C2.17412 3.83198 2.03137 4.15901 2.03137 4.5C2.03137 4.84099 2.17412 5.16802 2.42822 5.40914C2.68231 5.65026 3.02693 5.78572 3.38628 5.78572Z" fill="#D1D1D1"/>
</svg>
