<?xml version="1.0" encoding="utf-8"?>
<!-- Generator: Adobe Illustrator 25.3.1, SVG Export Plug-In . SVG Version: 6.00 Build 0)  -->
<svg version="1.1" id="Capa_1" xmlns="http://www.w3.org/2000/svg" xmlns:xlink="http://www.w3.org/1999/xlink" x="0px" y="0px"
	 viewBox="0 0 20 14" style="enable-background:new 0 0 20 14;" xml:space="preserve">
<style type="text/css">
	.st0{fill:#D1D1D1;}
	.st1{fill:#FFFFFF;}
</style>
<path class="st0" d="M0,6.9C0,6.9,3.8,0,10,0s10,6.9,10,6.9s-3.8,6.9-10,6.9S0,6.9,0,6.9z M10,11.2c1.2,0,2.3-0.5,3.1-1.3
	c0.8-0.8,1.3-1.9,1.3-3.1s-0.5-2.3-1.3-3.1C12.3,3,11.2,2.5,10,2.5C8.8,2.5,7.7,3,6.9,3.8S5.6,5.7,5.6,6.9S6.1,9.1,6.9,10
	C7.7,10.8,8.8,11.2,10,11.2z"/>
<path class="st0" d="M13.1,6.9c0,0.8-0.3,1.6-0.9,2.2S10.8,10,10,10c-0.8,0-1.6-0.3-2.2-0.9S6.9,7.7,6.9,6.9s0.3-1.6,0.9-2.2
	S9.2,3.7,10,3.7c0.8,0,1.6,0.3,2.2,0.9S13.1,6,13.1,6.9z"/>
<rect x="22.2" y="3.2" class="st0" width="1.3" height="11.9"/>
<rect x="23.5" y="3.2" class="st1" width="1.3" height="11.9"/>
</svg>
