<svg width="108" height="50" viewBox="0 0 108 50" fill="none" xmlns="http://www.w3.org/2000/svg">
<rect width="108" height="50" rx="10" fill="url(#paint0_linear)"/>
<path d="M15.5625 22L14.4961 19.2754H11.0625L10.0078 22H9L12.3867 13.3984H13.2246L16.5938 22H15.5625ZM14.1855 18.3789L13.1895 15.7246C13.0605 15.3887 12.9277 14.9766 12.791 14.4883C12.7051 14.8633 12.582 15.2754 12.4219 15.7246L11.4141 18.3789H14.1855ZM21.9961 21.1387H21.9434C21.4941 21.791 20.8223 22.1172 19.9277 22.1172C19.0879 22.1172 18.4336 21.8301 17.9648 21.2559C17.5 20.6816 17.2676 19.8652 17.2676 18.8066C17.2676 17.748 17.502 16.9258 17.9707 16.3398C18.4395 15.7539 19.0918 15.4609 19.9277 15.4609C20.7988 15.4609 21.4668 15.7773 21.9316 16.4102H22.0078L21.9668 15.9473L21.9434 15.4961V12.8828H22.916V22H22.125L21.9961 21.1387ZM20.0508 21.3027C20.7148 21.3027 21.1953 21.123 21.4922 20.7637C21.793 20.4004 21.9434 19.8164 21.9434 19.0117V18.8066C21.9434 17.8965 21.791 17.248 21.4863 16.8613C21.1855 16.4707 20.7031 16.2754 20.0391 16.2754C19.4688 16.2754 19.0312 16.498 18.7266 16.9434C18.4258 17.3848 18.2754 18.0098 18.2754 18.8184C18.2754 19.6387 18.4258 20.2578 18.7266 20.6758C19.0273 21.0938 19.4688 21.3027 20.0508 21.3027ZM29.3555 21.1387H29.3027C28.8535 21.791 28.1816 22.1172 27.2871 22.1172C26.4473 22.1172 25.793 21.8301 25.3242 21.2559C24.8594 20.6816 24.627 19.8652 24.627 18.8066C24.627 17.748 24.8613 16.9258 25.3301 16.3398C25.7988 15.7539 26.4512 15.4609 27.2871 15.4609C28.1582 15.4609 28.8262 15.7773 29.291 16.4102H29.3672L29.3262 15.9473L29.3027 15.4961V12.8828H30.2754V22H29.4844L29.3555 21.1387ZM27.4102 21.3027C28.0742 21.3027 28.5547 21.123 28.8516 20.7637C29.1523 20.4004 29.3027 19.8164 29.3027 19.0117V18.8066C29.3027 17.8965 29.1504 17.248 28.8457 16.8613C28.5449 16.4707 28.0625 16.2754 27.3984 16.2754C26.8281 16.2754 26.3906 16.498 26.0859 16.9434C25.7852 17.3848 25.6348 18.0098 25.6348 18.8184C25.6348 19.6387 25.7852 20.2578 26.0859 20.6758C26.3867 21.0938 26.8281 21.3027 27.4102 21.3027ZM39.0938 21.3145C39.2656 21.3145 39.4316 21.3027 39.5918 21.2793C39.752 21.252 39.8789 21.2246 39.9727 21.1973V21.9414C39.8672 21.9922 39.7109 22.0332 39.5039 22.0645C39.3008 22.0996 39.1172 22.1172 38.9531 22.1172C37.7109 22.1172 37.0898 21.4629 37.0898 20.1543V16.334H36.1699V15.8652L37.0898 15.4609L37.5 14.0898H38.0625V15.5781H39.9258V16.334H38.0625V20.1133C38.0625 20.5 38.1543 20.7969 38.3379 21.0039C38.5215 21.2109 38.7734 21.3145 39.0938 21.3145ZM46.8047 18.7832C46.8047 19.8301 46.541 20.6484 46.0137 21.2383C45.4863 21.8242 44.7578 22.1172 43.8281 22.1172C43.2539 22.1172 42.7441 21.9824 42.2988 21.7129C41.8535 21.4434 41.5098 21.0566 41.2676 20.5527C41.0254 20.0488 40.9043 19.459 40.9043 18.7832C40.9043 17.7363 41.166 16.9219 41.6895 16.3398C42.2129 15.7539 42.9395 15.4609 43.8691 15.4609C44.7676 15.4609 45.4805 15.7598 46.0078 16.3574C46.5391 16.9551 46.8047 17.7637 46.8047 18.7832ZM41.9121 18.7832C41.9121 19.6035 42.0762 20.2285 42.4043 20.6582C42.7324 21.0879 43.2148 21.3027 43.8516 21.3027C44.4883 21.3027 44.9707 21.0898 45.2988 20.6641C45.6309 20.2344 45.7969 19.6074 45.7969 18.7832C45.7969 17.9668 45.6309 17.3477 45.2988 16.9258C44.9707 16.5 44.4844 16.2871 43.8398 16.2871C43.2031 16.2871 42.7227 16.4961 42.3984 16.9141C42.0742 17.332 41.9121 17.9551 41.9121 18.7832ZM24.2666 39H20.1621L18.9316 33.4014C18.873 33.167 18.7793 32.7012 18.6504 32.0039C18.5273 31.3066 18.4365 30.7236 18.3779 30.2549C18.3311 30.6357 18.2549 31.1104 18.1494 31.6787C18.0439 32.2412 17.9385 32.7598 17.833 33.2344C17.7334 33.709 17.3086 35.6309 16.5586 39H12.4541L9.27246 26.1504H12.6211L14.0186 32.5928C14.335 34.0166 14.5518 35.1504 14.6689 35.9941C14.7451 35.3965 14.8799 34.585 15.0732 33.5596C15.2725 32.5342 15.457 31.6846 15.627 31.0107L16.7607 26.1504H19.9775L21.0762 31.0107C21.2637 31.79 21.4541 32.6895 21.6475 33.709C21.8408 34.7285 21.9697 35.4902 22.0342 35.9941C22.1104 35.3438 22.3184 34.2158 22.6582 32.6104L24.082 26.1504H27.4307L24.2666 39ZM29.0918 39V26.1504H32.5811V39H29.0918ZM43.7695 35.0977C43.7695 35.8945 43.5674 36.6035 43.1631 37.2246C42.7588 37.8398 42.1758 38.3203 41.4141 38.666C40.6523 39.0059 39.7588 39.1758 38.7334 39.1758C37.8779 39.1758 37.1602 39.1172 36.5801 39C36 38.877 35.3965 38.666 34.7695 38.3672V35.2734C35.4316 35.6133 36.1201 35.8799 36.835 36.0732C37.5498 36.2607 38.2061 36.3545 38.8037 36.3545C39.3193 36.3545 39.6973 36.2666 39.9375 36.0908C40.1777 35.9092 40.2979 35.6777 40.2979 35.3965C40.2979 35.2207 40.248 35.0684 40.1484 34.9395C40.0547 34.8047 39.8994 34.6699 39.6826 34.5352C39.4717 34.4004 38.9033 34.125 37.9775 33.709C37.1396 33.3281 36.5098 32.959 36.0879 32.6016C35.6719 32.2441 35.3613 31.834 35.1562 31.3711C34.957 30.9082 34.8574 30.3604 34.8574 29.7275C34.8574 28.5439 35.2881 27.6211 36.1494 26.959C37.0107 26.2969 38.1943 25.9658 39.7002 25.9658C41.0303 25.9658 42.3867 26.2734 43.7695 26.8887L42.7061 29.5693C41.5049 29.0186 40.4678 28.7432 39.5947 28.7432C39.1436 28.7432 38.8154 28.8223 38.6104 28.9805C38.4053 29.1387 38.3027 29.335 38.3027 29.5693C38.3027 29.8213 38.4316 30.0469 38.6895 30.2461C38.9531 30.4453 39.6621 30.8086 40.8164 31.3359C41.9238 31.834 42.6914 32.3701 43.1191 32.9443C43.5527 33.5127 43.7695 34.2305 43.7695 35.0977ZM56.7686 39H53.2793V33.7617H49.2451V39H45.7559V26.1504H49.2451V30.9141H53.2793V26.1504H56.7686V39ZM64.2305 39V26.1504H67.7021V36.1963H72.6504V39H64.2305ZM74.707 39V26.1504H78.1963V39H74.707ZM89.3848 35.0977C89.3848 35.8945 89.1826 36.6035 88.7783 37.2246C88.374 37.8398 87.791 38.3203 87.0293 38.666C86.2676 39.0059 85.374 39.1758 84.3486 39.1758C83.4932 39.1758 82.7754 39.1172 82.1953 39C81.6152 38.877 81.0117 38.666 80.3848 38.3672V35.2734C81.0469 35.6133 81.7354 35.8799 82.4502 36.0732C83.165 36.2607 83.8213 36.3545 84.4189 36.3545C84.9346 36.3545 85.3125 36.2666 85.5527 36.0908C85.793 35.9092 85.9131 35.6777 85.9131 35.3965C85.9131 35.2207 85.8633 35.0684 85.7637 34.9395C85.6699 34.8047 85.5146 34.6699 85.2979 34.5352C85.0869 34.4004 84.5186 34.125 83.5928 33.709C82.7549 33.3281 82.125 32.959 81.7031 32.6016C81.2871 32.2441 80.9766 31.834 80.7715 31.3711C80.5723 30.9082 80.4727 30.3604 80.4727 29.7275C80.4727 28.5439 80.9033 27.6211 81.7646 26.959C82.626 26.2969 83.8096 25.9658 85.3154 25.9658C86.6455 25.9658 88.002 26.2734 89.3848 26.8887L88.3213 29.5693C87.1201 29.0186 86.083 28.7432 85.21 28.7432C84.7588 28.7432 84.4307 28.8223 84.2256 28.9805C84.0205 29.1387 83.918 29.335 83.918 29.5693C83.918 29.8213 84.0469 30.0469 84.3047 30.2461C84.5684 30.4453 85.2773 30.8086 86.4316 31.3359C87.5391 31.834 88.3066 32.3701 88.7344 32.9443C89.168 33.5127 89.3848 34.2305 89.3848 35.0977ZM97.04 39H93.5684V28.9893H90.4307V26.1504H100.169V28.9893H97.04V39Z" fill="white"/>
<defs>
<linearGradient id="paint0_linear" x1="0" y1="0" x2="0" y2="50" gradientUnits="userSpaceOnUse">
<stop stop-color="#7CD235"/>
<stop offset="1" stop-color="#2BB34F"/>
</linearGradient>
</defs>
</svg>
