<svg width="151" height="50" viewBox="0 0 151 50" fill="none" xmlns="http://www.w3.org/2000/svg">
<rect width="151" height="50" rx="10" fill="url(#paint0_linear)"/>
<path d="M16.5625 22L15.4961 19.2754H12.0625L11.0078 22H10L13.3867 13.3984H14.2246L17.5938 22H16.5625ZM15.1855 18.3789L14.1895 15.7246C14.0605 15.3887 13.9277 14.9766 13.791 14.4883C13.7051 14.8633 13.582 15.2754 13.4219 15.7246L12.4141 18.3789H15.1855ZM22.9961 21.1387H22.9434C22.4941 21.791 21.8223 22.1172 20.9277 22.1172C20.0879 22.1172 19.4336 21.8301 18.9648 21.2559C18.5 20.6816 18.2676 19.8652 18.2676 18.8066C18.2676 17.748 18.502 16.9258 18.9707 16.3398C19.4395 15.7539 20.0918 15.4609 20.9277 15.4609C21.7988 15.4609 22.4668 15.7773 22.9316 16.4102H23.0078L22.9668 15.9473L22.9434 15.4961V12.8828H23.916V22H23.125L22.9961 21.1387ZM21.0508 21.3027C21.7148 21.3027 22.1953 21.123 22.4922 20.7637C22.793 20.4004 22.9434 19.8164 22.9434 19.0117V18.8066C22.9434 17.8965 22.791 17.248 22.4863 16.8613C22.1855 16.4707 21.7031 16.2754 21.0391 16.2754C20.4688 16.2754 20.0312 16.498 19.7266 16.9434C19.4258 17.3848 19.2754 18.0098 19.2754 18.8184C19.2754 19.6387 19.4258 20.2578 19.7266 20.6758C20.0273 21.0938 20.4688 21.3027 21.0508 21.3027ZM30.3555 21.1387H30.3027C29.8535 21.791 29.1816 22.1172 28.2871 22.1172C27.4473 22.1172 26.793 21.8301 26.3242 21.2559C25.8594 20.6816 25.627 19.8652 25.627 18.8066C25.627 17.748 25.8613 16.9258 26.3301 16.3398C26.7988 15.7539 27.4512 15.4609 28.2871 15.4609C29.1582 15.4609 29.8262 15.7773 30.291 16.4102H30.3672L30.3262 15.9473L30.3027 15.4961V12.8828H31.2754V22H30.4844L30.3555 21.1387ZM28.4102 21.3027C29.0742 21.3027 29.5547 21.123 29.8516 20.7637C30.1523 20.4004 30.3027 19.8164 30.3027 19.0117V18.8066C30.3027 17.8965 30.1504 17.248 29.8457 16.8613C29.5449 16.4707 29.0625 16.2754 28.3984 16.2754C27.8281 16.2754 27.3906 16.498 27.0859 16.9434C26.7852 17.3848 26.6348 18.0098 26.6348 18.8184C26.6348 19.6387 26.7852 20.2578 27.0859 20.6758C27.3867 21.0938 27.8281 21.3027 28.4102 21.3027ZM40.0938 21.3145C40.2656 21.3145 40.4316 21.3027 40.5918 21.2793C40.752 21.252 40.8789 21.2246 40.9727 21.1973V21.9414C40.8672 21.9922 40.7109 22.0332 40.5039 22.0645C40.3008 22.0996 40.1172 22.1172 39.9531 22.1172C38.7109 22.1172 38.0898 21.4629 38.0898 20.1543V16.334H37.1699V15.8652L38.0898 15.4609L38.5 14.0898H39.0625V15.5781H40.9258V16.334H39.0625V20.1133C39.0625 20.5 39.1543 20.7969 39.3379 21.0039C39.5215 21.2109 39.7734 21.3145 40.0938 21.3145ZM47.8047 18.7832C47.8047 19.8301 47.541 20.6484 47.0137 21.2383C46.4863 21.8242 45.7578 22.1172 44.8281 22.1172C44.2539 22.1172 43.7441 21.9824 43.2988 21.7129C42.8535 21.4434 42.5098 21.0566 42.2676 20.5527C42.0254 20.0488 41.9043 19.459 41.9043 18.7832C41.9043 17.7363 42.166 16.9219 42.6895 16.3398C43.2129 15.7539 43.9395 15.4609 44.8691 15.4609C45.7676 15.4609 46.4805 15.7598 47.0078 16.3574C47.5391 16.9551 47.8047 17.7637 47.8047 18.7832ZM42.9121 18.7832C42.9121 19.6035 43.0762 20.2285 43.4043 20.6582C43.7324 21.0879 44.2148 21.3027 44.8516 21.3027C45.4883 21.3027 45.9707 21.0898 46.2988 20.6641C46.6309 20.2344 46.7969 19.6074 46.7969 18.7832C46.7969 17.9668 46.6309 17.3477 46.2988 16.9258C45.9707 16.5 45.4844 16.2871 44.8398 16.2871C44.2031 16.2871 43.7227 16.4961 43.3984 16.9141C43.0742 17.332 42.9121 17.9551 42.9121 18.7832ZM25.2666 39H21.1621L19.9316 33.4014C19.873 33.167 19.7793 32.7012 19.6504 32.0039C19.5273 31.3066 19.4365 30.7236 19.3779 30.2549C19.3311 30.6357 19.2549 31.1104 19.1494 31.6787C19.0439 32.2412 18.9385 32.7598 18.833 33.2344C18.7334 33.709 18.3086 35.6309 17.5586 39H13.4541L10.2725 26.1504H13.6211L15.0186 32.5928C15.335 34.0166 15.5518 35.1504 15.6689 35.9941C15.7451 35.3965 15.8799 34.585 16.0732 33.5596C16.2725 32.5342 16.457 31.6846 16.627 31.0107L17.7607 26.1504H20.9775L22.0762 31.0107C22.2637 31.79 22.4541 32.6895 22.6475 33.709C22.8408 34.7285 22.9697 35.4902 23.0342 35.9941C23.1104 35.3438 23.3184 34.2158 23.6582 32.6104L25.082 26.1504H28.4307L25.2666 39ZM30.0918 39V26.1504H33.5811V39H30.0918ZM44.7695 35.0977C44.7695 35.8945 44.5674 36.6035 44.1631 37.2246C43.7588 37.8398 43.1758 38.3203 42.4141 38.666C41.6523 39.0059 40.7588 39.1758 39.7334 39.1758C38.8779 39.1758 38.1602 39.1172 37.5801 39C37 38.877 36.3965 38.666 35.7695 38.3672V35.2734C36.4316 35.6133 37.1201 35.8799 37.835 36.0732C38.5498 36.2607 39.2061 36.3545 39.8037 36.3545C40.3193 36.3545 40.6973 36.2666 40.9375 36.0908C41.1777 35.9092 41.2979 35.6777 41.2979 35.3965C41.2979 35.2207 41.248 35.0684 41.1484 34.9395C41.0547 34.8047 40.8994 34.6699 40.6826 34.5352C40.4717 34.4004 39.9033 34.125 38.9775 33.709C38.1396 33.3281 37.5098 32.959 37.0879 32.6016C36.6719 32.2441 36.3613 31.834 36.1562 31.3711C35.957 30.9082 35.8574 30.3604 35.8574 29.7275C35.8574 28.5439 36.2881 27.6211 37.1494 26.959C38.0107 26.2969 39.1943 25.9658 40.7002 25.9658C42.0303 25.9658 43.3867 26.2734 44.7695 26.8887L43.7061 29.5693C42.5049 29.0186 41.4678 28.7432 40.5947 28.7432C40.1436 28.7432 39.8154 28.8223 39.6104 28.9805C39.4053 29.1387 39.3027 29.335 39.3027 29.5693C39.3027 29.8213 39.4316 30.0469 39.6895 30.2461C39.9531 30.4453 40.6621 30.8086 41.8164 31.3359C42.9238 31.834 43.6914 32.3701 44.1191 32.9443C44.5527 33.5127 44.7695 34.2305 44.7695 35.0977ZM57.7686 39H54.2793V33.7617H50.2451V39H46.7559V26.1504H50.2451V30.9141H54.2793V26.1504H57.7686V39ZM65.2305 39V26.1504H68.7021V36.1963H73.6504V39H65.2305ZM75.707 39V26.1504H79.1963V39H75.707ZM90.3848 35.0977C90.3848 35.8945 90.1826 36.6035 89.7783 37.2246C89.374 37.8398 88.791 38.3203 88.0293 38.666C87.2676 39.0059 86.374 39.1758 85.3486 39.1758C84.4932 39.1758 83.7754 39.1172 83.1953 39C82.6152 38.877 82.0117 38.666 81.3848 38.3672V35.2734C82.0469 35.6133 82.7354 35.8799 83.4502 36.0732C84.165 36.2607 84.8213 36.3545 85.4189 36.3545C85.9346 36.3545 86.3125 36.2666 86.5527 36.0908C86.793 35.9092 86.9131 35.6777 86.9131 35.3965C86.9131 35.2207 86.8633 35.0684 86.7637 34.9395C86.6699 34.8047 86.5146 34.6699 86.2979 34.5352C86.0869 34.4004 85.5186 34.125 84.5928 33.709C83.7549 33.3281 83.125 32.959 82.7031 32.6016C82.2871 32.2441 81.9766 31.834 81.7715 31.3711C81.5723 30.9082 81.4727 30.3604 81.4727 29.7275C81.4727 28.5439 81.9033 27.6211 82.7646 26.959C83.626 26.2969 84.8096 25.9658 86.3154 25.9658C87.6455 25.9658 89.002 26.2734 90.3848 26.8887L89.3213 29.5693C88.1201 29.0186 87.083 28.7432 86.21 28.7432C85.7588 28.7432 85.4307 28.8223 85.2256 28.9805C85.0205 29.1387 84.918 29.335 84.918 29.5693C84.918 29.8213 85.0469 30.0469 85.3047 30.2461C85.5684 30.4453 86.2773 30.8086 87.4316 31.3359C88.5391 31.834 89.3066 32.3701 89.7344 32.9443C90.168 33.5127 90.3848 34.2305 90.3848 35.0977ZM98.04 39H94.5684V28.9893H91.4307V26.1504H101.169V28.9893H98.04V39Z" fill="white"/>
<path fill-rule="evenodd" clip-rule="evenodd" d="M120.688 16.9062C120.688 14.7489 122.436 13 124.594 13C126.751 13 128.5 14.7489 128.5 16.9062C128.5 14.7489 130.249 13 132.406 13C134.564 13 136.312 14.7489 136.312 16.9062V16.9156C136.312 17.025 136.312 17.3375 136.253 17.6875H139.438C140.3 17.6875 141 18.3871 141 19.25V20.8125C141 21.6754 140.3 22.375 139.438 22.375H117.562C116.7 22.375 116 21.6754 116 20.8125V19.25C116 18.3871 116.7 17.6875 117.562 17.6875H120.747C120.706 17.4323 120.686 17.1741 120.688 16.9156V16.9062ZM122.356 17.6875H126.938V16.9062C126.938 16.0689 126.491 15.2952 125.766 14.8765C125.04 14.4578 124.147 14.4578 123.422 14.8765C122.697 15.2952 122.25 16.0689 122.25 16.9062C122.25 17.0391 122.253 17.3344 122.32 17.5781C122.33 17.6154 122.342 17.6519 122.356 17.6875ZM134.644 17.6875H130.062V16.9062C130.062 15.6118 131.112 14.5625 132.406 14.5625C133.701 14.5625 134.75 15.6118 134.75 16.9062C134.75 17.0391 134.747 17.3344 134.68 17.5781C134.67 17.6153 134.658 17.6519 134.644 17.6875ZM139.438 23.9375V35.6562C139.438 36.9507 138.388 38 137.094 38H130.062V23.9375H139.438ZM117.562 35.6562C117.562 36.9507 118.612 38 119.906 38H126.938V23.9375H117.562V35.6562Z" fill="white"/>
<defs>
<linearGradient id="paint0_linear" x1="0" y1="0" x2="0" y2="50" gradientUnits="userSpaceOnUse">
<stop stop-color="#7CD235"/>
<stop offset="1" stop-color="#2BB34F"/>
</linearGradient>
</defs>
</svg>
