<svg width="47" height="24" viewBox="0 0 47 24" fill="none" xmlns="http://www.w3.org/2000/svg">
<rect width="47" height="24" rx="10" fill="url(#paint0_linear)"/>
<path d="M12.7832 13.4141H10.5156V12.1309H12.7832V9.8457H14.0664V12.1309H16.334V13.4141H14.0664V15.6699H12.7832V13.4141Z" fill="white"/>
<path fill-rule="evenodd" clip-rule="evenodd" d="M24 5.5C24 4.11929 25.1193 3 26.5 3C27.8807 3 29 4.11929 29 5.5C29 4.11929 30.1193 3 31.5 3C32.8807 3 34 4.11929 34 5.5V5.506C34 5.576 34 5.776 33.962 6H36C36.5523 6 37 6.44772 37 7V8C37 8.55228 36.5523 9 36 9H22C21.4477 9 21 8.55228 21 8V7C21 6.44772 21.4477 6 22 6H24.038C24.0116 5.83668 23.9989 5.67144 24 5.506V5.5ZM25.068 6H28V5.5C28 4.9641 27.7141 4.46891 27.25 4.20096C26.7859 3.93301 26.2141 3.93301 25.75 4.20096C25.2859 4.46891 25 4.9641 25 5.5C25 5.585 25.002 5.774 25.045 5.93C25.051 5.95385 25.0587 5.97724 25.068 6ZM32.932 6H30V5.5C30 4.67157 30.6716 4 31.5 4C32.3284 4 33 4.67157 33 5.5C33 5.585 32.998 5.774 32.955 5.93C32.9489 5.95381 32.9412 5.9772 32.932 6ZM36 10V17.5C36 18.3284 35.3284 19 34.5 19H30V10H36ZM22 17.5C22 18.3284 22.6716 19 23.5 19H28V10H22V17.5Z" fill="white"/>
<defs>
<linearGradient id="paint0_linear" x1="0" y1="0" x2="0" y2="24" gradientUnits="userSpaceOnUse">
<stop stop-color="#7CD235"/>
<stop offset="1" stop-color="#2BB34F"/>
</linearGradient>
</defs>
</svg>
