<svg width="28" height="24" viewBox="0 0 28 24" fill="none" xmlns="http://www.w3.org/2000/svg">
<path fill-rule="evenodd" clip-rule="evenodd" d="M0.25 22C0.25 21.6685 0.381696 21.3505 0.616117 21.1161C0.850537 20.8817 1.16848 20.75 1.5 20.75H26.5C26.8315 20.75 27.1495 20.8817 27.3839 21.1161C27.6183 21.3505 27.75 21.6685 27.75 22C27.75 22.3315 27.6183 22.6495 27.3839 22.8839C27.1495 23.1183 26.8315 23.25 26.5 23.25H1.5C1.16848 23.25 0.850537 23.1183 0.616117 22.8839C0.381696 22.6495 0.25 22.3315 0.25 22ZM0.25 12C0.25 11.6685 0.381696 11.3505 0.616117 11.1161C0.850537 10.8817 1.16848 10.75 1.5 10.75H26.5C26.8315 10.75 27.1495 10.8817 27.3839 11.1161C27.6183 11.3505 27.75 11.6685 27.75 12C27.75 12.3315 27.6183 12.6495 27.3839 12.8839C27.1495 13.1183 26.8315 13.25 26.5 13.25H1.5C1.16848 13.25 0.850537 13.1183 0.616117 12.8839C0.381696 12.6495 0.25 12.3315 0.25 12ZM0.25 2C0.25 1.66848 0.381696 1.35054 0.616117 1.11612C0.850537 0.881696 1.16848 0.75 1.5 0.75H26.5C26.8315 0.75 27.1495 0.881696 27.3839 1.11612C27.6183 1.35054 27.75 1.66848 27.75 2C27.75 2.33152 27.6183 2.64946 27.3839 2.88388C27.1495 3.1183 26.8315 3.25 26.5 3.25H1.5C1.16848 3.25 0.850537 3.1183 0.616117 2.88388C0.381696 2.64946 0.25 2.33152 0.25 2Z" fill="white"/>
</svg>
