<svg width="240" height="40" viewBox="0 0 240 40" fill="none" xmlns="http://www.w3.org/2000/svg">
<rect width="240" height="40" rx="10" fill="#515151"/>
<path d="M61.3223 25V16.4336H62.3184V24.0977H66.0977V25H61.3223ZM70.123 25.1172C69.1738 25.1172 68.4238 24.8281 67.873 24.25C67.3262 23.6719 67.0527 22.8691 67.0527 21.8418C67.0527 20.8066 67.3066 19.9844 67.8145 19.375C68.3262 18.7656 69.0117 18.4609 69.8711 18.4609C70.6758 18.4609 71.3125 18.7266 71.7812 19.2578C72.25 19.7852 72.4844 20.4824 72.4844 21.3496V21.9648H68.0605C68.0801 22.7188 68.2695 23.291 68.6289 23.6816C68.9922 24.0723 69.502 24.2676 70.1582 24.2676C70.8496 24.2676 71.5332 24.123 72.209 23.834V24.7012C71.8652 24.8496 71.5391 24.9551 71.2305 25.0176C70.9258 25.084 70.5566 25.1172 70.123 25.1172ZM69.8594 19.2754C69.3438 19.2754 68.9316 19.4434 68.623 19.7793C68.3184 20.1152 68.1387 20.5801 68.084 21.1738H71.4414C71.4414 20.5605 71.3047 20.0918 71.0312 19.7676C70.7578 19.4395 70.3672 19.2754 69.8594 19.2754ZM77.043 19.334H75.4082V25H74.4355V19.334H73.2871V18.8945L74.4355 18.543V18.1855C74.4355 16.6074 75.125 15.8184 76.5039 15.8184C76.8438 15.8184 77.2422 15.8867 77.6992 16.0234L77.4473 16.8027C77.0723 16.6816 76.752 16.6211 76.4863 16.6211C76.1191 16.6211 75.8477 16.7441 75.6719 16.9902C75.4961 17.2324 75.4082 17.623 75.4082 18.1621V18.5781H77.043V19.334ZM80.2891 24.3145C80.4609 24.3145 80.627 24.3027 80.7871 24.2793C80.9473 24.252 81.0742 24.2246 81.168 24.1973V24.9414C81.0625 24.9922 80.9062 25.0332 80.6992 25.0645C80.4961 25.0996 80.3125 25.1172 80.1484 25.1172C78.9062 25.1172 78.2852 24.4629 78.2852 23.1543V19.334H77.3652V18.8652L78.2852 18.4609L78.6953 17.0898H79.2578V18.5781H81.1211V19.334H79.2578V23.1133C79.2578 23.5 79.3496 23.7969 79.5332 24.0039C79.7168 24.2109 79.9688 24.3145 80.2891 24.3145ZM89.5234 25L89.3301 24.0859H89.2832C88.9629 24.4883 88.6426 24.7617 88.3223 24.9062C88.0059 25.0469 87.6094 25.1172 87.1328 25.1172C86.4961 25.1172 85.9961 24.9531 85.6328 24.625C85.2734 24.2969 85.0938 23.8301 85.0938 23.2246C85.0938 21.9277 86.1309 21.248 88.2051 21.1855L89.2949 21.1504V20.752C89.2949 20.248 89.1855 19.877 88.9668 19.6387C88.752 19.3965 88.4062 19.2754 87.9297 19.2754C87.3945 19.2754 86.7891 19.4395 86.1133 19.7676L85.8145 19.0234C86.1309 18.8516 86.4766 18.7168 86.8516 18.6191C87.2305 18.5215 87.6094 18.4727 87.9883 18.4727C88.7539 18.4727 89.3203 18.6426 89.6875 18.9824C90.0586 19.3223 90.2441 19.8672 90.2441 20.6172V25H89.5234ZM87.3262 24.3145C87.9316 24.3145 88.4062 24.1484 88.75 23.8164C89.0977 23.4844 89.2715 23.0195 89.2715 22.4219V21.8418L88.2988 21.8828C87.5254 21.9102 86.9668 22.0312 86.623 22.2461C86.2832 22.457 86.1133 22.7871 86.1133 23.2363C86.1133 23.5879 86.2188 23.8555 86.4297 24.0391C86.6445 24.2227 86.9434 24.3145 87.3262 24.3145ZM97.9375 25.1172C97.0078 25.1172 96.2871 24.832 95.7754 24.2617C95.2676 23.6875 95.0137 22.877 95.0137 21.8301C95.0137 20.7559 95.2715 19.9258 95.7871 19.3398C96.3066 18.7539 97.0449 18.4609 98.002 18.4609C98.3105 18.4609 98.6191 18.4941 98.9277 18.5605C99.2363 18.627 99.4785 18.7051 99.6543 18.7949L99.3555 19.6211C99.1406 19.5352 98.9062 19.4648 98.6523 19.4102C98.3984 19.3516 98.1738 19.3223 97.9785 19.3223C96.6738 19.3223 96.0215 20.1543 96.0215 21.8184C96.0215 22.6074 96.1797 23.2129 96.4961 23.6348C96.8164 24.0566 97.2891 24.2676 97.9141 24.2676C98.4492 24.2676 98.998 24.1523 99.5605 23.9219V24.7832C99.1309 25.0059 98.5898 25.1172 97.9375 25.1172ZM106.633 21.7832C106.633 22.8301 106.369 23.6484 105.842 24.2383C105.314 24.8242 104.586 25.1172 103.656 25.1172C103.082 25.1172 102.572 24.9824 102.127 24.7129C101.682 24.4434 101.338 24.0566 101.096 23.5527C100.854 23.0488 100.732 22.459 100.732 21.7832C100.732 20.7363 100.994 19.9219 101.518 19.3398C102.041 18.7539 102.768 18.4609 103.697 18.4609C104.596 18.4609 105.309 18.7598 105.836 19.3574C106.367 19.9551 106.633 20.7637 106.633 21.7832ZM101.74 21.7832C101.74 22.6035 101.904 23.2285 102.232 23.6582C102.561 24.0879 103.043 24.3027 103.68 24.3027C104.316 24.3027 104.799 24.0898 105.127 23.6641C105.459 23.2344 105.625 22.6074 105.625 21.7832C105.625 20.9668 105.459 20.3477 105.127 19.9258C104.799 19.5 104.312 19.2871 103.668 19.2871C103.031 19.2871 102.551 19.4961 102.227 19.9141C101.902 20.332 101.74 20.9551 101.74 21.7832ZM116.529 25V20.8223C116.529 20.3105 116.42 19.9277 116.201 19.6738C115.982 19.416 115.643 19.2871 115.182 19.2871C114.576 19.2871 114.129 19.4609 113.84 19.8086C113.551 20.1562 113.406 20.6914 113.406 21.4141V25H112.434V20.8223C112.434 20.3105 112.324 19.9277 112.105 19.6738C111.887 19.416 111.545 19.2871 111.08 19.2871C110.471 19.2871 110.023 19.4707 109.738 19.8379C109.457 20.2012 109.316 20.7988 109.316 21.6309V25H108.344V18.5781H109.135L109.293 19.457H109.34C109.523 19.1445 109.781 18.9004 110.113 18.7246C110.449 18.5488 110.824 18.4609 111.238 18.4609C112.242 18.4609 112.898 18.8242 113.207 19.5508H113.254C113.445 19.2148 113.723 18.9492 114.086 18.7539C114.449 18.5586 114.863 18.4609 115.328 18.4609C116.055 18.4609 116.598 18.6484 116.957 19.0234C117.32 19.3945 117.502 19.9902 117.502 20.8105V25H116.529ZM127.697 25V20.8223C127.697 20.3105 127.588 19.9277 127.369 19.6738C127.15 19.416 126.811 19.2871 126.35 19.2871C125.744 19.2871 125.297 19.4609 125.008 19.8086C124.719 20.1562 124.574 20.6914 124.574 21.4141V25H123.602V20.8223C123.602 20.3105 123.492 19.9277 123.273 19.6738C123.055 19.416 122.713 19.2871 122.248 19.2871C121.639 19.2871 121.191 19.4707 120.906 19.8379C120.625 20.2012 120.484 20.7988 120.484 21.6309V25H119.512V18.5781H120.303L120.461 19.457H120.508C120.691 19.1445 120.949 18.9004 121.281 18.7246C121.617 18.5488 121.992 18.4609 122.406 18.4609C123.41 18.4609 124.066 18.8242 124.375 19.5508H124.422C124.613 19.2148 124.891 18.9492 125.254 18.7539C125.617 18.5586 126.031 18.4609 126.496 18.4609C127.223 18.4609 127.766 18.6484 128.125 19.0234C128.488 19.3945 128.67 19.9902 128.67 20.8105V25H127.697ZM133.393 25.1172C132.443 25.1172 131.693 24.8281 131.143 24.25C130.596 23.6719 130.322 22.8691 130.322 21.8418C130.322 20.8066 130.576 19.9844 131.084 19.375C131.596 18.7656 132.281 18.4609 133.141 18.4609C133.945 18.4609 134.582 18.7266 135.051 19.2578C135.52 19.7852 135.754 20.4824 135.754 21.3496V21.9648H131.33C131.35 22.7188 131.539 23.291 131.898 23.6816C132.262 24.0723 132.771 24.2676 133.428 24.2676C134.119 24.2676 134.803 24.123 135.479 23.834V24.7012C135.135 24.8496 134.809 24.9551 134.5 25.0176C134.195 25.084 133.826 25.1172 133.393 25.1172ZM133.129 19.2754C132.613 19.2754 132.201 19.4434 131.893 19.7793C131.588 20.1152 131.408 20.5801 131.354 21.1738H134.711C134.711 20.5605 134.574 20.0918 134.301 19.7676C134.027 19.4395 133.637 19.2754 133.129 19.2754ZM141.812 25V20.8457C141.812 20.3223 141.693 19.9316 141.455 19.6738C141.217 19.416 140.844 19.2871 140.336 19.2871C139.664 19.2871 139.172 19.4688 138.859 19.832C138.547 20.1953 138.391 20.7949 138.391 21.6309V25H137.418V18.5781H138.209L138.367 19.457H138.414C138.613 19.1406 138.893 18.8965 139.252 18.7246C139.611 18.5488 140.012 18.4609 140.453 18.4609C141.227 18.4609 141.809 18.6484 142.199 19.0234C142.59 19.3945 142.785 19.9902 142.785 20.8105V25H141.812ZM146.863 24.3145C147.035 24.3145 147.201 24.3027 147.361 24.2793C147.521 24.252 147.648 24.2246 147.742 24.1973V24.9414C147.637 24.9922 147.48 25.0332 147.273 25.0645C147.07 25.0996 146.887 25.1172 146.723 25.1172C145.48 25.1172 144.859 24.4629 144.859 23.1543V19.334H143.939V18.8652L144.859 18.4609L145.27 17.0898H145.832V18.5781H147.695V19.334H145.832V23.1133C145.832 23.5 145.924 23.7969 146.107 24.0039C146.291 24.2109 146.543 24.3145 146.863 24.3145Z" fill="white"/>
<path fill-rule="evenodd" clip-rule="evenodd" d="M171 26C175.418 26 179 22.866 179 19C179 15.134 175.418 12 171 12C166.582 12 163 15.134 163 19C163 20.76 163.744 22.37 164.969 23.6C164.873 24.616 164.553 25.73 164.199 26.566C164.12 26.752 164.272 26.96 164.472 26.928C166.728 26.558 168.069 25.99 168.653 25.694C169.419 25.8982 170.208 26.0011 171 26ZM167 18C167.552 18 168 18.4477 168 19C168 19.5523 167.552 20 167 20C166.448 20 166 19.5523 166 19C166 18.4477 166.448 18 167 18ZM172 19C172 18.4477 171.552 18 171 18C170.448 18 170 18.4477 170 19C170 19.5523 170.448 20 171 20C171.552 20 172 19.5523 172 19ZM176 19C176 19.5523 175.552 20 175 20C174.448 20 174 19.5523 174 19C174 18.4477 174.448 18 175 18C175.552 18 176 18.4477 176 19Z" fill="white"/>
</svg>
