<svg width="141" height="40" viewBox="0 0 141 40" fill="none" xmlns="http://www.w3.org/2000/svg">
<rect width="141" height="40" rx="10" fill="#515151"/>
<path d="M12.3223 25V16.4336H13.3184V24.0977H17.0977V25H12.3223ZM21.123 25.1172C20.1738 25.1172 19.4238 24.8281 18.873 24.25C18.3262 23.6719 18.0527 22.8691 18.0527 21.8418C18.0527 20.8066 18.3066 19.9844 18.8145 19.375C19.3262 18.7656 20.0117 18.4609 20.8711 18.4609C21.6758 18.4609 22.3125 18.7266 22.7812 19.2578C23.25 19.7852 23.4844 20.4824 23.4844 21.3496V21.9648H19.0605C19.0801 22.7188 19.2695 23.291 19.6289 23.6816C19.9922 24.0723 20.502 24.2676 21.1582 24.2676C21.8496 24.2676 22.5332 24.123 23.209 23.834V24.7012C22.8652 24.8496 22.5391 24.9551 22.2305 25.0176C21.9258 25.084 21.5566 25.1172 21.123 25.1172ZM20.8594 19.2754C20.3438 19.2754 19.9316 19.4434 19.623 19.7793C19.3184 20.1152 19.1387 20.5801 19.084 21.1738H22.4414C22.4414 20.5605 22.3047 20.0918 22.0312 19.7676C21.7578 19.4395 21.3672 19.2754 20.8594 19.2754ZM28.043 19.334H26.4082V25H25.4355V19.334H24.2871V18.8945L25.4355 18.543V18.1855C25.4355 16.6074 26.125 15.8184 27.5039 15.8184C27.8438 15.8184 28.2422 15.8867 28.6992 16.0234L28.4473 16.8027C28.0723 16.6816 27.752 16.6211 27.4863 16.6211C27.1191 16.6211 26.8477 16.7441 26.6719 16.9902C26.4961 17.2324 26.4082 17.623 26.4082 18.1621V18.5781H28.043V19.334ZM31.2891 24.3145C31.4609 24.3145 31.627 24.3027 31.7871 24.2793C31.9473 24.252 32.0742 24.2246 32.168 24.1973V24.9414C32.0625 24.9922 31.9062 25.0332 31.6992 25.0645C31.4961 25.0996 31.3125 25.1172 31.1484 25.1172C29.9062 25.1172 29.2852 24.4629 29.2852 23.1543V19.334H28.3652V18.8652L29.2852 18.4609L29.6953 17.0898H30.2578V18.5781H32.1211V19.334H30.2578V23.1133C30.2578 23.5 30.3496 23.7969 30.5332 24.0039C30.7168 24.2109 30.9688 24.3145 31.2891 24.3145ZM40.5234 25L40.3301 24.0859H40.2832C39.9629 24.4883 39.6426 24.7617 39.3223 24.9062C39.0059 25.0469 38.6094 25.1172 38.1328 25.1172C37.4961 25.1172 36.9961 24.9531 36.6328 24.625C36.2734 24.2969 36.0938 23.8301 36.0938 23.2246C36.0938 21.9277 37.1309 21.248 39.2051 21.1855L40.2949 21.1504V20.752C40.2949 20.248 40.1855 19.877 39.9668 19.6387C39.752 19.3965 39.4062 19.2754 38.9297 19.2754C38.3945 19.2754 37.7891 19.4395 37.1133 19.7676L36.8145 19.0234C37.1309 18.8516 37.4766 18.7168 37.8516 18.6191C38.2305 18.5215 38.6094 18.4727 38.9883 18.4727C39.7539 18.4727 40.3203 18.6426 40.6875 18.9824C41.0586 19.3223 41.2441 19.8672 41.2441 20.6172V25H40.5234ZM38.3262 24.3145C38.9316 24.3145 39.4062 24.1484 39.75 23.8164C40.0977 23.4844 40.2715 23.0195 40.2715 22.4219V21.8418L39.2988 21.8828C38.5254 21.9102 37.9668 22.0312 37.623 22.2461C37.2832 22.457 37.1133 22.7871 37.1133 23.2363C37.1133 23.5879 37.2188 23.8555 37.4297 24.0391C37.6445 24.2227 37.9434 24.3145 38.3262 24.3145ZM48.9375 25.1172C48.0078 25.1172 47.2871 24.832 46.7754 24.2617C46.2676 23.6875 46.0137 22.877 46.0137 21.8301C46.0137 20.7559 46.2715 19.9258 46.7871 19.3398C47.3066 18.7539 48.0449 18.4609 49.002 18.4609C49.3105 18.4609 49.6191 18.4941 49.9277 18.5605C50.2363 18.627 50.4785 18.7051 50.6543 18.7949L50.3555 19.6211C50.1406 19.5352 49.9062 19.4648 49.6523 19.4102C49.3984 19.3516 49.1738 19.3223 48.9785 19.3223C47.6738 19.3223 47.0215 20.1543 47.0215 21.8184C47.0215 22.6074 47.1797 23.2129 47.4961 23.6348C47.8164 24.0566 48.2891 24.2676 48.9141 24.2676C49.4492 24.2676 49.998 24.1523 50.5605 23.9219V24.7832C50.1309 25.0059 49.5898 25.1172 48.9375 25.1172ZM57.6328 21.7832C57.6328 22.8301 57.3691 23.6484 56.8418 24.2383C56.3145 24.8242 55.5859 25.1172 54.6562 25.1172C54.082 25.1172 53.5723 24.9824 53.127 24.7129C52.6816 24.4434 52.3379 24.0566 52.0957 23.5527C51.8535 23.0488 51.7324 22.459 51.7324 21.7832C51.7324 20.7363 51.9941 19.9219 52.5176 19.3398C53.041 18.7539 53.7676 18.4609 54.6973 18.4609C55.5957 18.4609 56.3086 18.7598 56.8359 19.3574C57.3672 19.9551 57.6328 20.7637 57.6328 21.7832ZM52.7402 21.7832C52.7402 22.6035 52.9043 23.2285 53.2324 23.6582C53.5605 24.0879 54.043 24.3027 54.6797 24.3027C55.3164 24.3027 55.7988 24.0898 56.127 23.6641C56.459 23.2344 56.625 22.6074 56.625 21.7832C56.625 20.9668 56.459 20.3477 56.127 19.9258C55.7988 19.5 55.3125 19.2871 54.668 19.2871C54.0312 19.2871 53.5508 19.4961 53.2266 19.9141C52.9023 20.332 52.7402 20.9551 52.7402 21.7832ZM67.5293 25V20.8223C67.5293 20.3105 67.4199 19.9277 67.2012 19.6738C66.9824 19.416 66.6426 19.2871 66.1816 19.2871C65.5762 19.2871 65.1289 19.4609 64.8398 19.8086C64.5508 20.1562 64.4062 20.6914 64.4062 21.4141V25H63.4336V20.8223C63.4336 20.3105 63.3242 19.9277 63.1055 19.6738C62.8867 19.416 62.5449 19.2871 62.0801 19.2871C61.4707 19.2871 61.0234 19.4707 60.7383 19.8379C60.457 20.2012 60.3164 20.7988 60.3164 21.6309V25H59.3438V18.5781H60.1348L60.293 19.457H60.3398C60.5234 19.1445 60.7812 18.9004 61.1133 18.7246C61.4492 18.5488 61.8242 18.4609 62.2383 18.4609C63.2422 18.4609 63.8984 18.8242 64.207 19.5508H64.2539C64.4453 19.2148 64.7227 18.9492 65.0859 18.7539C65.4492 18.5586 65.8633 18.4609 66.3281 18.4609C67.0547 18.4609 67.5977 18.6484 67.957 19.0234C68.3203 19.3945 68.502 19.9902 68.502 20.8105V25H67.5293ZM78.6973 25V20.8223C78.6973 20.3105 78.5879 19.9277 78.3691 19.6738C78.1504 19.416 77.8105 19.2871 77.3496 19.2871C76.7441 19.2871 76.2969 19.4609 76.0078 19.8086C75.7188 20.1562 75.5742 20.6914 75.5742 21.4141V25H74.6016V20.8223C74.6016 20.3105 74.4922 19.9277 74.2734 19.6738C74.0547 19.416 73.7129 19.2871 73.248 19.2871C72.6387 19.2871 72.1914 19.4707 71.9062 19.8379C71.625 20.2012 71.4844 20.7988 71.4844 21.6309V25H70.5117V18.5781H71.3027L71.4609 19.457H71.5078C71.6914 19.1445 71.9492 18.9004 72.2812 18.7246C72.6172 18.5488 72.9922 18.4609 73.4062 18.4609C74.4102 18.4609 75.0664 18.8242 75.375 19.5508H75.4219C75.6133 19.2148 75.8906 18.9492 76.2539 18.7539C76.6172 18.5586 77.0312 18.4609 77.4961 18.4609C78.2227 18.4609 78.7656 18.6484 79.125 19.0234C79.4883 19.3945 79.6699 19.9902 79.6699 20.8105V25H78.6973ZM84.3926 25.1172C83.4434 25.1172 82.6934 24.8281 82.1426 24.25C81.5957 23.6719 81.3223 22.8691 81.3223 21.8418C81.3223 20.8066 81.5762 19.9844 82.084 19.375C82.5957 18.7656 83.2812 18.4609 84.1406 18.4609C84.9453 18.4609 85.582 18.7266 86.0508 19.2578C86.5195 19.7852 86.7539 20.4824 86.7539 21.3496V21.9648H82.3301C82.3496 22.7188 82.5391 23.291 82.8984 23.6816C83.2617 24.0723 83.7715 24.2676 84.4277 24.2676C85.1191 24.2676 85.8027 24.123 86.4785 23.834V24.7012C86.1348 24.8496 85.8086 24.9551 85.5 25.0176C85.1953 25.084 84.8262 25.1172 84.3926 25.1172ZM84.1289 19.2754C83.6133 19.2754 83.2012 19.4434 82.8926 19.7793C82.5879 20.1152 82.4082 20.5801 82.3535 21.1738H85.7109C85.7109 20.5605 85.5742 20.0918 85.3008 19.7676C85.0273 19.4395 84.6367 19.2754 84.1289 19.2754ZM92.8125 25V20.8457C92.8125 20.3223 92.6934 19.9316 92.4551 19.6738C92.2168 19.416 91.8438 19.2871 91.3359 19.2871C90.6641 19.2871 90.1719 19.4688 89.8594 19.832C89.5469 20.1953 89.3906 20.7949 89.3906 21.6309V25H88.418V18.5781H89.209L89.3672 19.457H89.4141C89.6133 19.1406 89.8926 18.8965 90.252 18.7246C90.6113 18.5488 91.0117 18.4609 91.4531 18.4609C92.2266 18.4609 92.8086 18.6484 93.1992 19.0234C93.5898 19.3945 93.7852 19.9902 93.7852 20.8105V25H92.8125ZM97.8633 24.3145C98.0352 24.3145 98.2012 24.3027 98.3613 24.2793C98.5215 24.252 98.6484 24.2246 98.7422 24.1973V24.9414C98.6367 24.9922 98.4805 25.0332 98.2734 25.0645C98.0703 25.0996 97.8867 25.1172 97.7227 25.1172C96.4805 25.1172 95.8594 24.4629 95.8594 23.1543V19.334H94.9395V18.8652L95.8594 18.4609L96.2695 17.0898H96.832V18.5781H98.6953V19.334H96.832V23.1133C96.832 23.5 96.9238 23.7969 97.1074 24.0039C97.291 24.2109 97.543 24.3145 97.8633 24.3145Z" fill="white"/>
<path fill-rule="evenodd" clip-rule="evenodd" d="M122 26C126.418 26 130 22.866 130 19C130 15.134 126.418 12 122 12C117.582 12 114 15.134 114 19C114 20.76 114.744 22.37 115.969 23.6C115.873 24.616 115.553 25.73 115.199 26.566C115.12 26.752 115.272 26.96 115.472 26.928C117.728 26.558 119.069 25.99 119.653 25.694C120.419 25.8982 121.208 26.0011 122 26ZM118 18C118.552 18 119 18.4477 119 19C119 19.5523 118.552 20 118 20C117.448 20 117 19.5523 117 19C117 18.4477 117.448 18 118 18ZM123 19C123 18.4477 122.552 18 122 18C121.448 18 121 18.4477 121 19C121 19.5523 121.448 20 122 20C122.552 20 123 19.5523 123 19ZM127 19C127 19.5523 126.552 20 126 20C125.448 20 125 19.5523 125 19C125 18.4477 125.448 18 126 18C126.552 18 127 18.4477 127 19Z" fill="white"/>
</svg>
