<svg width="24" height="23" viewBox="0 0 24 23" fill="none" xmlns="http://www.w3.org/2000/svg">
<path fill-rule="evenodd" clip-rule="evenodd" d="M16.8828 14.8675C19.7694 10.9276 19.135 5.42934 15.4269 2.25034C11.7186 -0.928902 6.18737 -0.715774 2.73467 2.7394C-0.718032 6.19457 -0.927202 11.7259 2.2547 15.432C5.43635 19.1378 10.9351 19.7682 14.8728 16.8789C14.9158 16.9361 14.9617 16.9906 15.0132 17.0435L20.5482 22.5785C21.1095 23.1402 22.02 23.1405 22.5817 22.5792C23.1435 22.0178 23.1438 21.1074 22.5824 20.5456L17.0475 15.0107C16.9963 14.9589 16.9413 14.911 16.8828 14.8675ZM13.2995 16.1898C15.746 14.7773 17.2531 12.167 17.2531 9.34207C17.2531 4.97512 13.713 1.43501 9.34602 1.43501C4.97907 1.43501 1.43896 4.97512 1.43896 9.34207C1.43896 12.167 2.94604 14.7773 5.39249 16.1898C7.83894 17.6022 10.8531 17.6022 13.2995 16.1898Z" fill="white"/>
</svg>
