<svg width="16" height="16" viewBox="0 0 16 16" fill="none" xmlns="http://www.w3.org/2000/svg">
<path fill-rule="evenodd" clip-rule="evenodd" d="M11.7424 10.3434C13.7502 7.60286 13.309 3.77838 10.7297 1.56713C8.15026 -0.644296 4.30284 -0.496048 1.90121 1.90731C-0.500426 4.31066 -0.645921 8.15818 1.56735 10.736C3.78044 13.3137 7.60525 13.7522 10.3443 11.7425C10.3742 11.7823 10.4061 11.8201 10.4419 11.857L14.2919 15.707C14.6824 16.0977 15.3157 16.098 15.7064 15.7075C16.0972 15.317 16.0974 14.6837 15.7069 14.293L11.8569 10.443C11.8213 10.4069 11.783 10.3736 11.7424 10.3434ZM9.24994 11.2631C10.9516 10.2807 11.9999 8.46496 11.9999 6.5C11.9999 3.46243 9.53751 0.999999 6.49994 0.999999C3.46237 0.999999 0.999941 3.46243 0.999941 6.5C0.999941 8.46496 2.04823 10.2807 3.74994 11.2631C5.45165 12.2456 7.54823 12.2456 9.24994 11.2631Z" fill="white"/>
</svg>
