<svg width="13" height="13" viewBox="0 0 13 13" fill="none" xmlns="http://www.w3.org/2000/svg">
<path fill-rule="evenodd" clip-rule="evenodd" d="M9.67443 13H7.67506C7.62406 13 7.58325 12.9591 7.58325 12.908V0.081761C7.58325 0.0408805 7.61385 0 7.66486 0H9.67443C11.5106 0 12.9999 1.49214 12.9999 3.33176V9.66824C12.9999 11.5079 11.5106 13 9.67443 13ZM11.4596 7.15409C11.4596 6.42846 10.8679 5.83569 10.1437 5.83569C9.41941 5.83569 8.83796 6.42846 8.82776 7.15409C8.82776 7.87972 9.41941 8.47248 10.1437 8.47248C10.8679 8.47248 11.4596 7.87972 11.4596 7.15409Z" fill="white"/>
<path d="M2.16675 4.33333C2.16675 4.92917 2.65425 5.41667 3.25008 5.41667C3.84591 5.41667 4.33341 4.92917 4.33341 4.33333C4.33341 3.7375 3.84591 3.25 3.25008 3.25C2.64522 3.25 2.16675 3.72847 2.16675 4.33333Z" fill="white"/>
<path fill-rule="evenodd" clip-rule="evenodd" d="M3.45677 0H6.40457C6.45759 0 6.5 0.0408805 6.5 0.0919811V12.908C6.5 12.9591 6.45759 13 6.40457 13H3.45677C1.54812 13 0 11.5079 0 9.66824V3.33176C0 1.49214 1.54812 0 3.45677 0ZM3.45677 11.9575H5.41843V1.04245H3.45677C2.82055 1.04245 2.22675 1.28774 1.7814 1.71698C1.32545 2.14623 1.08157 2.71855 1.08157 3.33176V9.66824C1.08157 10.2814 1.33605 10.8538 1.7814 11.283C2.22675 11.7225 2.82055 11.9575 3.45677 11.9575Z" fill="white"/>
</svg>
