<?xml version="1.0" encoding="utf-8"?>
<!-- Generator: Adobe Illustrator 21.0.2, SVG Export Plug-In . SVG Version: 6.00 Build 0)  -->
<svg version="1.1" id="Capa_1" xmlns="http://www.w3.org/2000/svg" xmlns:xlink="http://www.w3.org/1999/xlink" x="0px" y="0px"
	 viewBox="0 0 841.9 980" style="enable-background:new 0 0 841.9 980;" xml:space="preserve">
<style type="text/css">
	.st0{fill:#FFFFFF;}
	.st1{fill:none;enable-background:new    ;}
</style>
<path class="st0" d="M617.9,980c-5.7,0-11.3,0-17,0c-5-1.2-10-2.1-14.9-3.7c-17.7-5.7-28.4-19.1-37-34.6c-1.5-2.7-3.2-4.2-6.3-4.9
	c-72.9-16.9-145.5-12.8-218.1,2.1c-1.5,0.3-3.2,1.7-4,3c-14.4,24.7-37.5,35.3-65.9,30.6c-23-3.8-44.7-11.5-66.5-19.3
	c-24.9-8.9-49.5-18.9-75.6-23.7c-18-3.3-36.2-5.4-54.2-8.7c-14.3-2.6-28.3-6.4-40.7-14.3c-13.2-8.4-16.7-18.4-12-33.4
	c3.1-10,6.3-20,9.5-30c5.1-15.7,5.5-31.3-0.1-47c-1.7-4.7-2.7-9.6-3.6-14.5c-4-21.5,4.9-35.7,25.8-41.6c1.6-0.5,3.2-0.7,4.9-1.2
	c11.1-2.9,22.3-5.4,33.2-9c16.4-5.5,30.3-14.7,38.2-30.8c5.9-12,12.8-23,25.1-29.4c-5.3-15.7-6.3-31.5-1.6-47
	c3.1-10.1,8.7-19.4,12.6-29.3c9.6-24.8,19.6-49.5,27.9-74.8c14.2-42.8,34.6-82,62.9-117.2c14.3-17.8,27.3-36.6,40.9-54.9
	c4.7-6.3,8-13.3,8.4-21.1c1.1-21.1,2.9-42.3,2.2-63.3c-1-31.1-4-62.2-5.7-93.3c-1.4-25-0.3-50,5.5-74.5c6.3-26,18-48.7,40.7-64.3
	C350.3,18,369.7,9.7,390.5,5c9.4-2.1,18.9-3.4,28.4-5c8.7,0,17.3,0,26,0c1.3,0.3,2.5,0.8,3.8,0.9c46.2,5.2,81.7,27.1,104.8,67.7
	c19.2,33.8,27.6,70.9,30.3,109.3c1.9,26.9,2.4,53.9,4.2,80.8c2,30.5,10.9,58.6,29.3,83.6c17.6,23.9,34.4,48.3,51.1,72.8
	c25.9,38,50.9,76.5,70.9,118c11.7,24.3,18.7,49.7,18.9,76.9c0.2,24.6-2.8,48.8-8.6,72.7c-0.5,1.9-0.1,4.8,1.1,6.1
	c14.1,15.3,21.3,32.9,20.6,54c-0.5,16.2,5.4,30.4,18.4,40.3c8.6,6.6,18.4,11.9,28.2,16.6c20.9,10.1,26.6,31.7,12.7,50.3
	c-6.2,8.3-14.6,14.1-23.5,19c-23.3,12.8-46.8,25.4-70,38.6c-26.7,15.2-52.7,31.1-74.7,53.1c-5.4,5.4-12.6,9.4-19.7,12.4
	C634.9,976.3,626.2,977.7,617.9,980z M311.9,304.5c0.3,1.8,0.6,3.5,0.8,5.1c0.2,1.8,0.3,3.7,0.2,5.5c-1.2,32.2-12.4,60.6-31.8,86.1
	c-3.3,4.3-6.9,8.8-9,13.7c-7.4,17.8-14.5,35.7-21.2,53.8c-7.6,20.6-13.6,41.9-24.9,60.9c-19.9,33.5-28.2,69.8-27.1,108.4
	c0.7,23.2,7.9,43.8,25.9,59.6c8.9,7.8,17.7,15.7,26.8,23.2c16.5,13.5,33.4,26.5,49.5,40.4c6.2,5.3,11.7,12,15.9,19
	c8.2,13.7,3.2,31.4-10.6,39.6c-4,2.3-8.4,3.9-12.7,5.8c0.1,0.2,0.2,0.7,0.5,1.1c12.7,14.6,25.3,29.2,38.2,43.6
	c1.3,1.5,4,2.3,6.1,2.6c21.4,2.9,42.9,2.8,64.3,0.8c18.4-1.7,37-3.2,54.8-7.5c43.3-10.5,76.5-36.9,104.4-70.7
	c1.3-1.6,1.7-4.2,1.8-6.4c0.4-16.5,0.4-33,1.1-49.5c0.6-14.6,1.9-29.2,3.2-43.8c0.6-6.7,4.4-12.1,10.9-13.5
	c6.9-1.5,14.1-1.4,21.2-1.7c2.5-0.1,5.1,0.6,7.7,1c0.4-1.2,0.6-1.9,0.7-2.5c11.9-50.3,11.6-100.2-4.6-149.7
	c-18.8-57.3-42-112.9-67.1-167.6c-9.6-21-20.3-41.5-30.8-62.1c-3.1-6.2-5.1-6.6-11.8-4.7c-1.8,0.5-3.6,0.9-5.2,1.8
	c-12.3,6.3-24.6,12.6-36.8,19c-18.7,9.9-37.2,20.1-55.9,29.8c-10.6,5.5-21.8,5.3-32.2-0.2c-9.4-4.9-18.5-10.6-26.8-17.1
	C328.7,321.1,320.8,312.7,311.9,304.5z M258.4,946c4.1-1.1,9.1-1.1,12.1-3.5c7.6-6.1,15-12.8,21.1-20.3c8.9-10.9,10.4-23.8,6.4-37.3
	c-4.2-14-12.4-25.6-21.5-36.8c-8.5-10.5-17.1-20.9-24.4-32.2c-16.7-26.1-32-53-48.9-79c-7.4-11.3-16.8-21.4-25.9-31.5
	c-3.7-4.1-8.8-7.1-13.8-9.7c-8.4-4.4-14.3-3-20.1,4.6c-3,3.9-5.4,8.4-7.8,12.8c-3.5,6.4-6.6,13.1-10.2,19.4
	c-5.1,8.9-12.6,15-22.6,17.7c-6.6,1.8-13.2,3.3-19.8,5c-9.8,2.6-19.7,5-29.3,8.1c-8,2.6-11.7,8.5-10.8,17c0.6,5.3,1.2,10.6,2.4,15.8
	c3.5,14.8,3.3,29.3-1.3,43.8c-3.2,10-6.3,20.1-8.1,30.3c-2,11.6,1,16.3,12.3,19c16.5,3.9,33.2,7.1,49.9,9.9
	c24.3,4.1,48.3,8.9,71,19.3c13.6,6.2,27.8,11.1,41.9,16.1C226.4,939.7,241.9,944.4,258.4,946z M613.3,711.1
	c-1.3-0.1-2.8-0.4-4.3-0.4c-8.8-0.1-12.3,2.8-12.8,11.5c-0.3,5.8,0.1,11.7,0.3,17.5c0.6,18,3.1,36.1,1.5,53.8
	c-2.3,25.3-7.3,50.4-11.8,75.4c-2.5,14-5.1,27.8-2.3,42.1c6.5,32.8,30.7,44.6,60,29.1c14.6-7.7,26.9-18.3,38.7-29.7
	c5.7-5.5,11.6-11.3,18.4-15.3c23.7-13.8,47.9-26.7,71.9-40.1c9.6-5.4,19.2-10.6,28.4-16.7c6.4-4.2,6.7-10.1,1.5-15.8
	c-2.7-2.9-5.8-5.6-9.1-7.7c-5.6-3.6-11.3-7.1-17.3-10c-12.8-6.1-20.8-16.2-25.8-29.1c-3.9-9.9-5.3-20.2-5-30.8
	c0.2-9.1-2.3-17.2-10.3-22.8c-0.5,0.4-0.7,0.5-0.8,0.6c-1.4,2.5-2.8,4.9-4.2,7.4c-9.6,17.8-23.4,30.6-43.1,36.4
	c-7.8,2.3-15.8,4.6-23.8,5.2c-27.7,2-43.1-8.3-48-35.6C614.2,728,614,719.8,613.3,711.1z M385.5,327.4c5.2-1.8,10.9-2.9,15.7-5.5
	c25.6-14.1,51.1-28.6,76.4-43.2c7.1-4.1,7.7-11.2,1.5-16.6c-4.5-3.9-9.6-7.4-15-9.6c-19.6-7.9-39.5-15-59.1-22.8
	c-10.2-4.1-19.5-2.6-28.4,3.1c-2,1.3-4.1,2.3-5.9,3.8c-14.8,11.9-29.6,23.7-44.2,35.8c-1.5,1.2-2.4,4.8-1.8,6.5
	c1.6,4.3,3.8,8.6,6.7,12c11.6,13.6,26.6,23,41.8,32.1C376.7,325.1,380.9,325.8,385.5,327.4z M438.4,219.1c0.3-0.7,0.4-0.9,0.4-1
	c-0.5-1.4-1-2.8-1.4-4.2c-3-10.3-2.8-20.5,2.1-30.1c4.3-8.5,10.5-14.8,20.8-14.8c10.2,0,16.5,6.3,20.8,14.8
	c8.3,16.6,4.1,34.8-10.8,47.9c13.1,6.6,10.7,7.8,20.9-2.5c22.6-22.8,21.9-66-0.9-88.6c-15.9-15.8-38.6-17.3-55.7-3.3
	c-21,17.1-26.1,48.6-17,72.1c0.5,1.2,1.8,2.3,3,2.9C426.4,214.5,432.3,216.8,438.4,219.1z M353.9,220.5c5-3.5,9.1-7.7,14-9.6
	c6.6-2.5,8.4-6.9,8.6-13.2c0.9-18.4-2.3-35.6-14.8-49.9c-12.7-14.6-31.3-14.6-44.4-0.3c-1.8,2-3.6,4-4.9,6.3
	c-14.1,24.9-14.5,50.1-0.2,74.9c3,5.3,8.5,9.1,13,13.4c0.8,0.8,3.2,1.3,3.9,0.7c4.4-3.4,8.6-7.2,12.5-10.6c-4.1-1.4-8-2-11.1-3.9
	c-14.6-9.2-19.2-37.5-8.6-51.2c5.5-7.1,13.8-8.9,20.5-3.1c4.7,4.1,8.6,9.7,11.2,15.4C358.2,199.3,357.9,209.8,353.9,220.5z"/>
<path class="st1" d="z"/>
</svg>
