<svg width="40" height="40" viewBox="0 0 40 40" fill="none" xmlns="http://www.w3.org/2000/svg">
<rect width="40" height="40" rx="10" fill="#515151"/>
<path fill-rule="evenodd" clip-rule="evenodd" d="M10.4001 11.8288C10.4001 11.4343 10.7199 11.1145 11.1144 11.1145H29.6859C30.0804 11.1145 30.4001 11.4343 30.4001 11.8288C30.4001 12.2233 30.0804 12.5431 29.6859 12.5431H11.1144C10.7199 12.5431 10.4001 12.2233 10.4001 11.8288ZM27.543 15.4002H13.2573C11.6793 15.4002 10.4001 16.6794 10.4001 18.2573V22.543C10.4001 24.121 11.6793 25.4002 13.2573 25.4002H27.543C29.121 25.4002 30.4001 24.121 30.4001 22.543V18.2573C30.4001 16.6794 29.121 15.4002 27.543 15.4002ZM11.8289 18.2575C11.8289 17.4685 12.4685 16.8289 13.2574 16.8289H27.5431C28.3321 16.8289 28.9717 17.4685 28.9717 18.2575V22.5432C28.9717 23.3322 28.3321 23.9718 27.5431 23.9718H13.2574C12.4685 23.9718 11.8289 23.3322 11.8289 22.5432V18.2575ZM11.1144 28.2574C10.7199 28.2574 10.4001 28.5772 10.4001 28.9717C10.4001 29.3662 10.7199 29.686 11.1144 29.686H29.6859C30.0804 29.686 30.4001 29.3662 30.4001 28.9717C30.4001 28.5772 30.0804 28.2574 29.6859 28.2574H11.1144Z" fill="black"/>
</svg>
