<svg width="40" height="40" viewBox="0 0 40 40" fill="none" xmlns="http://www.w3.org/2000/svg">
<rect width="40" height="40" rx="10" fill="#303030"/>
<path fill-rule="evenodd" clip-rule="evenodd" d="M10.4001 11.8287C10.4001 11.4342 10.7199 11.1144 11.1144 11.1144H29.6859C30.0804 11.1144 30.4001 11.4342 30.4001 11.8287C30.4001 12.2232 30.0804 12.543 29.6859 12.543H11.1144C10.7199 12.543 10.4001 12.2232 10.4001 11.8287ZM27.543 15.4001H13.2573C11.6793 15.4001 10.4001 16.6793 10.4001 18.2572V22.5429C10.4001 24.1209 11.6793 25.4001 13.2573 25.4001H27.543C29.121 25.4001 30.4001 24.1209 30.4001 22.5429V18.2572C30.4001 16.6793 29.121 15.4001 27.543 15.4001ZM11.8289 18.2573C11.8289 17.4684 12.4685 16.8288 13.2574 16.8288H27.5431C28.3321 16.8288 28.9717 17.4684 28.9717 18.2573V22.5431C28.9717 23.332 28.3321 23.9716 27.5431 23.9716H13.2574C12.4685 23.9716 11.8289 23.332 11.8289 22.5431V18.2573ZM11.1144 28.2573C10.7199 28.2573 10.4001 28.5771 10.4001 28.9716C10.4001 29.3661 10.7199 29.6859 11.1144 29.6859H29.6859C30.0804 29.6859 30.4001 29.3661 30.4001 28.9716C30.4001 28.5771 30.0804 28.2573 29.6859 28.2573H11.1144Z" fill="black"/>
</svg>
