<svg width="40" height="40" viewBox="0 0 40 40" fill="none" xmlns="http://www.w3.org/2000/svg">
<rect width="40" height="40" rx="10" fill="#7D7D7D"/>
<path fill-rule="evenodd" clip-rule="evenodd" d="M10.4004 11.8287C10.4004 11.4342 10.7202 11.1144 11.1147 11.1144H29.6861C30.0806 11.1144 30.4004 11.4342 30.4004 11.8287C30.4004 12.2232 30.0806 12.543 29.6861 12.543H11.1147C10.7202 12.543 10.4004 12.2232 10.4004 11.8287ZM27.5432 15.4001H13.2575C11.6796 15.4001 10.4004 16.6793 10.4004 18.2572V22.5429C10.4004 24.1209 11.6796 25.4001 13.2575 25.4001H27.5432C29.1212 25.4001 30.4004 24.1209 30.4004 22.5429V18.2572C30.4004 16.6793 29.1212 15.4001 27.5432 15.4001ZM11.8291 18.2573C11.8291 17.4684 12.4687 16.8288 13.2577 16.8288H27.5434C28.3324 16.8288 28.972 17.4684 28.972 18.2573V22.5431C28.972 23.332 28.3324 23.9716 27.5434 23.9716H13.2577C12.4687 23.9716 11.8291 23.332 11.8291 22.5431V18.2573ZM11.1147 28.2573C10.7202 28.2573 10.4004 28.5771 10.4004 28.9716C10.4004 29.3661 10.7202 29.6859 11.1147 29.6859H29.6861C30.0806 29.6859 30.4004 29.3661 30.4004 28.9716C30.4004 28.5771 30.0806 28.2573 29.6861 28.2573H11.1147Z" fill="black"/>
</svg>
