<svg width="40" height="40" viewBox="0 0 40 40" fill="none" xmlns="http://www.w3.org/2000/svg">
<rect width="40" height="40" rx="10" fill="#303030"/>
<path fill-rule="evenodd" clip-rule="evenodd" d="M27.5428 8.79993H13.257C11.6791 8.79993 10.3999 10.0791 10.3999 11.6571V15.9428C10.3999 17.5207 11.6791 18.7999 13.257 18.7999H27.5428C29.1207 18.7999 30.3999 17.5207 30.3999 15.9428V11.6571C30.3999 10.0791 29.1207 8.79993 27.5428 8.79993ZM11.8285 11.6571C11.8285 10.8681 12.4681 10.2285 13.2571 10.2285H27.5428C28.3318 10.2285 28.9714 10.8681 28.9714 11.6571V15.9428C28.9714 16.7318 28.3318 17.3714 27.5428 17.3714H13.2571C12.4681 17.3714 11.8285 16.7318 11.8285 15.9428V11.6571ZM13.257 21.6571H27.5428C29.1207 21.6571 30.3999 22.9362 30.3999 24.5142V28.7999C30.3999 30.3779 29.1207 31.6571 27.5428 31.6571H13.257C11.6791 31.6571 10.3999 30.3779 10.3999 28.7999V24.5142C10.3999 22.9362 11.6791 21.6571 13.257 21.6571ZM11.8285 24.5141C11.8285 23.7252 12.4681 23.0856 13.2571 23.0856H27.5428C28.3318 23.0856 28.9714 23.7252 28.9714 24.5141V28.7999C28.9714 29.5888 28.3318 30.2284 27.5428 30.2284H13.2571C12.4681 30.2284 11.8285 29.5888 11.8285 28.7999V24.5141Z" fill="black"/>
</svg>
