<svg width="108" height="50" viewBox="0 0 108 50" fill="none" xmlns="http://www.w3.org/2000/svg">
<rect x="0.5" y="0.5" width="107" height="49" rx="9.5" stroke="#979797"/>
<path d="M90.2109 27.8281H85.6758V25.2617H90.2109V20.6914H92.7773V25.2617H97.3125V27.8281H92.7773V32.3398H90.2109V27.8281Z" fill="white"/>
<path d="M17.6543 23H16.6699L14.9414 17.2637C14.8594 17.0098 14.7676 16.6895 14.666 16.3027C14.5645 15.916 14.5117 15.6836 14.5078 15.6055C14.4219 16.1211 14.2852 16.6855 14.0977 17.2988L12.4219 23H11.4375L9.1582 14.4336H10.2129L11.5664 19.7246C11.7539 20.4668 11.8906 21.1387 11.9766 21.7402C12.082 21.0254 12.2383 20.3262 12.4453 19.6426L13.9805 14.4336H15.0352L16.6465 19.6895C16.834 20.2949 16.9922 20.9785 17.1211 21.7402C17.1953 21.1855 17.3359 20.5098 17.543 19.7129L18.8906 14.4336H19.9453L17.6543 23ZM25.5352 23V18.8457C25.5352 18.3223 25.416 17.9316 25.1777 17.6738C24.9395 17.416 24.5664 17.2871 24.0586 17.2871C23.3828 17.2871 22.8887 17.4707 22.5762 17.8379C22.2676 18.2051 22.1133 18.8066 22.1133 19.6426V23H21.1406V13.8828H22.1133V16.6426C22.1133 16.9746 22.0977 17.25 22.0664 17.4688H22.125C22.3164 17.1602 22.5879 16.918 22.9395 16.7422C23.2949 16.5625 23.6992 16.4727 24.1523 16.4727C24.9375 16.4727 25.5254 16.6602 25.916 17.0352C26.3105 17.4062 26.5078 17.998 26.5078 18.8105V23H25.5352ZM31.2246 23.1172C30.2754 23.1172 29.5254 22.8281 28.9746 22.25C28.4277 21.6719 28.1543 20.8691 28.1543 19.8418C28.1543 18.8066 28.4082 17.9844 28.916 17.375C29.4277 16.7656 30.1133 16.4609 30.9727 16.4609C31.7773 16.4609 32.4141 16.7266 32.8828 17.2578C33.3516 17.7852 33.5859 18.4824 33.5859 19.3496V19.9648H29.1621C29.1816 20.7188 29.3711 21.291 29.7305 21.6816C30.0938 22.0723 30.6035 22.2676 31.2598 22.2676C31.9512 22.2676 32.6348 22.123 33.3105 21.834V22.7012C32.9668 22.8496 32.6406 22.9551 32.332 23.0176C32.0273 23.084 31.6582 23.1172 31.2246 23.1172ZM30.9609 17.2754C30.4453 17.2754 30.0332 17.4434 29.7246 17.7793C29.4199 18.1152 29.2402 18.5801 29.1855 19.1738H32.543C32.543 18.5605 32.4062 18.0918 32.1328 17.7676C31.8594 17.4395 31.4688 17.2754 30.9609 17.2754ZM38.1797 16.4609C38.4648 16.4609 38.7207 16.4844 38.9473 16.5312L38.8125 17.4336C38.5469 17.375 38.3125 17.3457 38.1094 17.3457C37.5898 17.3457 37.1445 17.5566 36.7734 17.9785C36.4062 18.4004 36.2227 18.9258 36.2227 19.5547V23H35.25V16.5781H36.0527L36.1641 17.7676H36.2109C36.4492 17.3496 36.7363 17.0273 37.0723 16.8008C37.4082 16.5742 37.7773 16.4609 38.1797 16.4609ZM42.8613 23.1172C41.9121 23.1172 41.1621 22.8281 40.6113 22.25C40.0645 21.6719 39.791 20.8691 39.791 19.8418C39.791 18.8066 40.0449 17.9844 40.5527 17.375C41.0645 16.7656 41.75 16.4609 42.6094 16.4609C43.4141 16.4609 44.0508 16.7266 44.5195 17.2578C44.9883 17.7852 45.2227 18.4824 45.2227 19.3496V19.9648H40.7988C40.8184 20.7188 41.0078 21.291 41.3672 21.6816C41.7305 22.0723 42.2402 22.2676 42.8965 22.2676C43.5879 22.2676 44.2715 22.123 44.9473 21.834V22.7012C44.6035 22.8496 44.2773 22.9551 43.9688 23.0176C43.6641 23.084 43.2949 23.1172 42.8613 23.1172ZM42.5977 17.2754C42.082 17.2754 41.6699 17.4434 41.3613 17.7793C41.0566 18.1152 40.877 18.5801 40.8223 19.1738H44.1797C44.1797 18.5605 44.043 18.0918 43.7695 17.7676C43.4961 17.4395 43.1055 17.2754 42.5977 17.2754ZM53.6367 22.3145C53.8086 22.3145 53.9746 22.3027 54.1348 22.2793C54.2949 22.252 54.4219 22.2246 54.5156 22.1973V22.9414C54.4102 22.9922 54.2539 23.0332 54.0469 23.0645C53.8438 23.0996 53.6602 23.1172 53.4961 23.1172C52.2539 23.1172 51.6328 22.4629 51.6328 21.1543V17.334H50.7129V16.8652L51.6328 16.4609L52.043 15.0898H52.6055V16.5781H54.4688V17.334H52.6055V21.1133C52.6055 21.5 52.6973 21.7969 52.8809 22.0039C53.0645 22.2109 53.3164 22.3145 53.6367 22.3145ZM61.3477 19.7832C61.3477 20.8301 61.084 21.6484 60.5566 22.2383C60.0293 22.8242 59.3008 23.1172 58.3711 23.1172C57.7969 23.1172 57.2871 22.9824 56.8418 22.7129C56.3965 22.4434 56.0527 22.0566 55.8105 21.5527C55.5684 21.0488 55.4473 20.459 55.4473 19.7832C55.4473 18.7363 55.709 17.9219 56.2324 17.3398C56.7559 16.7539 57.4824 16.4609 58.4121 16.4609C59.3105 16.4609 60.0234 16.7598 60.5508 17.3574C61.082 17.9551 61.3477 18.7637 61.3477 19.7832ZM56.4551 19.7832C56.4551 20.6035 56.6191 21.2285 56.9473 21.6582C57.2754 22.0879 57.7578 22.3027 58.3945 22.3027C59.0312 22.3027 59.5137 22.0898 59.8418 21.6641C60.1738 21.2344 60.3398 20.6074 60.3398 19.7832C60.3398 18.9668 60.1738 18.3477 59.8418 17.9258C59.5137 17.5 59.0273 17.2871 58.3828 17.2871C57.7461 17.2871 57.2656 17.4961 56.9414 17.9141C56.6172 18.332 56.4551 18.9551 56.4551 19.7832ZM10.3887 27.1504H14.8711C16.6172 27.1504 17.9121 27.4111 18.7559 27.9326C19.6055 28.4482 20.0303 29.2539 20.0303 30.3496C20.0303 31.0703 19.8457 31.6855 19.4766 32.1953C19.1074 32.7051 18.6211 33.0332 18.0176 33.1797V33.2676C18.8145 33.4785 19.3916 33.8301 19.749 34.3223C20.1064 34.8145 20.2852 35.4531 20.2852 36.2383C20.2852 37.4043 19.8457 38.3242 18.9668 38.998C18.0938 39.666 16.9014 40 15.3896 40H10.3887V27.1504ZM13.8604 32.0811H14.9062C15.4043 32.0811 15.7881 31.9785 16.0576 31.7734C16.333 31.5684 16.4707 31.2637 16.4707 30.8594C16.4707 30.1387 15.9258 29.7783 14.8359 29.7783H13.8604V32.0811ZM13.8604 34.6211V37.3193H15.082C16.166 37.3193 16.708 36.8623 16.708 35.9482C16.708 35.5205 16.5615 35.1924 16.2686 34.9639C15.9814 34.7354 15.5625 34.6211 15.0117 34.6211H13.8604ZM33.4424 27.1504V34.8848C33.4424 36.5664 32.9648 37.8701 32.0098 38.7959C31.0605 39.7158 29.6895 40.1758 27.8965 40.1758C26.1445 40.1758 24.7969 39.7275 23.8535 38.8311C22.916 37.9346 22.4473 36.6455 22.4473 34.9639V27.1504H25.9365V34.6914C25.9365 35.5996 26.1064 36.2588 26.4463 36.6689C26.7861 37.0791 27.2871 37.2842 27.9492 37.2842C28.6582 37.2842 29.1709 37.082 29.4873 36.6777C29.8096 36.2676 29.9707 35.5996 29.9707 34.6738V27.1504H33.4424ZM40.7285 31.9141L42.9434 27.1504H46.7051L42.4775 34.9814V40H38.9795V35.0869L34.752 27.1504H38.5312L40.7285 31.9141Z" fill="white"/>
</svg>
