<svg width="125" height="50" viewBox="0 0 125 50" fill="none" xmlns="http://www.w3.org/2000/svg">
<rect x="0.5" y="0.5" width="124" height="49" rx="9.5" stroke="#979797"/>
<path d="M98.2109 27.8281H93.6758V25.2617H98.2109V20.6914H100.777V25.2617H105.312V27.8281H100.777V32.3398H98.2109V27.8281Z" fill="white"/>
<path d="M28.6543 23H27.6699L25.9414 17.2637C25.8594 17.0098 25.7676 16.6895 25.666 16.3027C25.5645 15.916 25.5117 15.6836 25.5078 15.6055C25.4219 16.1211 25.2852 16.6855 25.0977 17.2988L23.4219 23H22.4375L20.1582 14.4336H21.2129L22.5664 19.7246C22.7539 20.4668 22.8906 21.1387 22.9766 21.7402C23.082 21.0254 23.2383 20.3262 23.4453 19.6426L24.9805 14.4336H26.0352L27.6465 19.6895C27.834 20.2949 27.9922 20.9785 28.1211 21.7402C28.1953 21.1855 28.3359 20.5098 28.543 19.7129L29.8906 14.4336H30.9453L28.6543 23ZM36.5352 23V18.8457C36.5352 18.3223 36.416 17.9316 36.1777 17.6738C35.9395 17.416 35.5664 17.2871 35.0586 17.2871C34.3828 17.2871 33.8887 17.4707 33.5762 17.8379C33.2676 18.2051 33.1133 18.8066 33.1133 19.6426V23H32.1406V13.8828H33.1133V16.6426C33.1133 16.9746 33.0977 17.25 33.0664 17.4688H33.125C33.3164 17.1602 33.5879 16.918 33.9395 16.7422C34.2949 16.5625 34.6992 16.4727 35.1523 16.4727C35.9375 16.4727 36.5254 16.6602 36.916 17.0352C37.3105 17.4062 37.5078 17.998 37.5078 18.8105V23H36.5352ZM42.2246 23.1172C41.2754 23.1172 40.5254 22.8281 39.9746 22.25C39.4277 21.6719 39.1543 20.8691 39.1543 19.8418C39.1543 18.8066 39.4082 17.9844 39.916 17.375C40.4277 16.7656 41.1133 16.4609 41.9727 16.4609C42.7773 16.4609 43.4141 16.7266 43.8828 17.2578C44.3516 17.7852 44.5859 18.4824 44.5859 19.3496V19.9648H40.1621C40.1816 20.7188 40.3711 21.291 40.7305 21.6816C41.0938 22.0723 41.6035 22.2676 42.2598 22.2676C42.9512 22.2676 43.6348 22.123 44.3105 21.834V22.7012C43.9668 22.8496 43.6406 22.9551 43.332 23.0176C43.0273 23.084 42.6582 23.1172 42.2246 23.1172ZM41.9609 17.2754C41.4453 17.2754 41.0332 17.4434 40.7246 17.7793C40.4199 18.1152 40.2402 18.5801 40.1855 19.1738H43.543C43.543 18.5605 43.4062 18.0918 43.1328 17.7676C42.8594 17.4395 42.4688 17.2754 41.9609 17.2754ZM49.1797 16.4609C49.4648 16.4609 49.7207 16.4844 49.9473 16.5312L49.8125 17.4336C49.5469 17.375 49.3125 17.3457 49.1094 17.3457C48.5898 17.3457 48.1445 17.5566 47.7734 17.9785C47.4062 18.4004 47.2227 18.9258 47.2227 19.5547V23H46.25V16.5781H47.0527L47.1641 17.7676H47.2109C47.4492 17.3496 47.7363 17.0273 48.0723 16.8008C48.4082 16.5742 48.7773 16.4609 49.1797 16.4609ZM53.8613 23.1172C52.9121 23.1172 52.1621 22.8281 51.6113 22.25C51.0645 21.6719 50.791 20.8691 50.791 19.8418C50.791 18.8066 51.0449 17.9844 51.5527 17.375C52.0645 16.7656 52.75 16.4609 53.6094 16.4609C54.4141 16.4609 55.0508 16.7266 55.5195 17.2578C55.9883 17.7852 56.2227 18.4824 56.2227 19.3496V19.9648H51.7988C51.8184 20.7188 52.0078 21.291 52.3672 21.6816C52.7305 22.0723 53.2402 22.2676 53.8965 22.2676C54.5879 22.2676 55.2715 22.123 55.9473 21.834V22.7012C55.6035 22.8496 55.2773 22.9551 54.9688 23.0176C54.6641 23.084 54.2949 23.1172 53.8613 23.1172ZM53.5977 17.2754C53.082 17.2754 52.6699 17.4434 52.3613 17.7793C52.0566 18.1152 51.877 18.5801 51.8223 19.1738H55.1797C55.1797 18.5605 55.043 18.0918 54.7695 17.7676C54.4961 17.4395 54.1055 17.2754 53.5977 17.2754ZM64.6367 22.3145C64.8086 22.3145 64.9746 22.3027 65.1348 22.2793C65.2949 22.252 65.4219 22.2246 65.5156 22.1973V22.9414C65.4102 22.9922 65.2539 23.0332 65.0469 23.0645C64.8438 23.0996 64.6602 23.1172 64.4961 23.1172C63.2539 23.1172 62.6328 22.4629 62.6328 21.1543V17.334H61.7129V16.8652L62.6328 16.4609L63.043 15.0898H63.6055V16.5781H65.4688V17.334H63.6055V21.1133C63.6055 21.5 63.6973 21.7969 63.8809 22.0039C64.0645 22.2109 64.3164 22.3145 64.6367 22.3145ZM72.3477 19.7832C72.3477 20.8301 72.084 21.6484 71.5566 22.2383C71.0293 22.8242 70.3008 23.1172 69.3711 23.1172C68.7969 23.1172 68.2871 22.9824 67.8418 22.7129C67.3965 22.4434 67.0527 22.0566 66.8105 21.5527C66.5684 21.0488 66.4473 20.459 66.4473 19.7832C66.4473 18.7363 66.709 17.9219 67.2324 17.3398C67.7559 16.7539 68.4824 16.4609 69.4121 16.4609C70.3105 16.4609 71.0234 16.7598 71.5508 17.3574C72.082 17.9551 72.3477 18.7637 72.3477 19.7832ZM67.4551 19.7832C67.4551 20.6035 67.6191 21.2285 67.9473 21.6582C68.2754 22.0879 68.7578 22.3027 69.3945 22.3027C70.0312 22.3027 70.5137 22.0898 70.8418 21.6641C71.1738 21.2344 71.3398 20.6074 71.3398 19.7832C71.3398 18.9668 71.1738 18.3477 70.8418 17.9258C70.5137 17.5 70.0273 17.2871 69.3828 17.2871C68.7461 17.2871 68.2656 17.4961 67.9414 17.9141C67.6172 18.332 67.4551 18.9551 67.4551 19.7832ZM21.3887 27.1504H25.8711C27.6172 27.1504 28.9121 27.4111 29.7559 27.9326C30.6055 28.4482 31.0303 29.2539 31.0303 30.3496C31.0303 31.0703 30.8457 31.6855 30.4766 32.1953C30.1074 32.7051 29.6211 33.0332 29.0176 33.1797V33.2676C29.8145 33.4785 30.3916 33.8301 30.749 34.3223C31.1064 34.8145 31.2852 35.4531 31.2852 36.2383C31.2852 37.4043 30.8457 38.3242 29.9668 38.998C29.0938 39.666 27.9014 40 26.3896 40H21.3887V27.1504ZM24.8604 32.0811H25.9062C26.4043 32.0811 26.7881 31.9785 27.0576 31.7734C27.333 31.5684 27.4707 31.2637 27.4707 30.8594C27.4707 30.1387 26.9258 29.7783 25.8359 29.7783H24.8604V32.0811ZM24.8604 34.6211V37.3193H26.082C27.166 37.3193 27.708 36.8623 27.708 35.9482C27.708 35.5205 27.5615 35.1924 27.2686 34.9639C26.9814 34.7354 26.5625 34.6211 26.0117 34.6211H24.8604ZM44.4424 27.1504V34.8848C44.4424 36.5664 43.9648 37.8701 43.0098 38.7959C42.0605 39.7158 40.6895 40.1758 38.8965 40.1758C37.1445 40.1758 35.7969 39.7275 34.8535 38.8311C33.916 37.9346 33.4473 36.6455 33.4473 34.9639V27.1504H36.9365V34.6914C36.9365 35.5996 37.1064 36.2588 37.4463 36.6689C37.7861 37.0791 38.2871 37.2842 38.9492 37.2842C39.6582 37.2842 40.1709 37.082 40.4873 36.6777C40.8096 36.2676 40.9707 35.5996 40.9707 34.6738V27.1504H44.4424ZM51.7285 31.9141L53.9434 27.1504H57.7051L53.4775 34.9814V40H49.9795V35.0869L45.752 27.1504H49.5312L51.7285 31.9141Z" fill="white"/>
</svg>
