<svg width="141" height="40" viewBox="0 0 141 40" fill="none" xmlns="http://www.w3.org/2000/svg">
<rect width="141" height="40" rx="10" fill="#515151"/>
<path d="M117.906 22.1094H113.547V18.9688H117.906V14.668H121.059V18.9688H125.418V22.1094H121.059V26.3398H117.906V22.1094Z" fill="white"/>
<path d="M27.9551 25H26.9707L25.2422 19.2637C25.1602 19.0098 25.0684 18.6895 24.9668 18.3027C24.8652 17.916 24.8125 17.6836 24.8086 17.6055C24.7227 18.1211 24.5859 18.6855 24.3984 19.2988L22.7227 25H21.7383L19.459 16.4336H20.5137L21.8672 21.7246C22.0547 22.4668 22.1914 23.1387 22.2773 23.7402C22.3828 23.0254 22.5391 22.3262 22.7461 21.6426L24.2812 16.4336H25.3359L26.9473 21.6895C27.1348 22.2949 27.293 22.9785 27.4219 23.7402C27.4961 23.1855 27.6367 22.5098 27.8438 21.7129L29.1914 16.4336H30.2461L27.9551 25ZM34.3711 18.4609C34.6562 18.4609 34.9121 18.4844 35.1387 18.5312L35.0039 19.4336C34.7383 19.375 34.5039 19.3457 34.3008 19.3457C33.7812 19.3457 33.3359 19.5566 32.9648 19.9785C32.5977 20.4004 32.4141 20.9258 32.4141 21.5547V25H31.4414V18.5781H32.2441L32.3555 19.7676H32.4023C32.6406 19.3496 32.9277 19.0273 33.2637 18.8008C33.5996 18.5742 33.9688 18.4609 34.3711 18.4609ZM37.3125 25H36.3398V18.5781H37.3125V25ZM36.2578 16.8379C36.2578 16.6152 36.3125 16.4531 36.4219 16.3516C36.5312 16.2461 36.668 16.1934 36.832 16.1934C36.9883 16.1934 37.123 16.2461 37.2363 16.3516C37.3496 16.457 37.4062 16.6191 37.4062 16.8379C37.4062 17.0566 37.3496 17.2207 37.2363 17.3301C37.123 17.4355 36.9883 17.4883 36.832 17.4883C36.668 17.4883 36.5312 17.4355 36.4219 17.3301C36.3125 17.2207 36.2578 17.0566 36.2578 16.8379ZM41.4492 24.3145C41.6211 24.3145 41.7871 24.3027 41.9473 24.2793C42.1074 24.252 42.2344 24.2246 42.3281 24.1973V24.9414C42.2227 24.9922 42.0664 25.0332 41.8594 25.0645C41.6562 25.0996 41.4727 25.1172 41.3086 25.1172C40.0664 25.1172 39.4453 24.4629 39.4453 23.1543V19.334H38.5254V18.8652L39.4453 18.4609L39.8555 17.0898H40.418V18.5781H42.2812V19.334H40.418V23.1133C40.418 23.5 40.5098 23.7969 40.6934 24.0039C40.877 24.2109 41.1289 24.3145 41.4492 24.3145ZM46.3301 25.1172C45.3809 25.1172 44.6309 24.8281 44.0801 24.25C43.5332 23.6719 43.2598 22.8691 43.2598 21.8418C43.2598 20.8066 43.5137 19.9844 44.0215 19.375C44.5332 18.7656 45.2188 18.4609 46.0781 18.4609C46.8828 18.4609 47.5195 18.7266 47.9883 19.2578C48.457 19.7852 48.6914 20.4824 48.6914 21.3496V21.9648H44.2676C44.2871 22.7188 44.4766 23.291 44.8359 23.6816C45.1992 24.0723 45.709 24.2676 46.3652 24.2676C47.0566 24.2676 47.7402 24.123 48.416 23.834V24.7012C48.0723 24.8496 47.7461 24.9551 47.4375 25.0176C47.1328 25.084 46.7637 25.1172 46.3301 25.1172ZM46.0664 19.2754C45.5508 19.2754 45.1387 19.4434 44.8301 19.7793C44.5254 20.1152 44.3457 20.5801 44.291 21.1738H47.6484C47.6484 20.5605 47.5117 20.0918 47.2383 19.7676C46.9648 19.4395 46.5742 19.2754 46.0664 19.2754ZM57.4219 25L57.2285 24.0859H57.1816C56.8613 24.4883 56.541 24.7617 56.2207 24.9062C55.9043 25.0469 55.5078 25.1172 55.0312 25.1172C54.3945 25.1172 53.8945 24.9531 53.5312 24.625C53.1719 24.2969 52.9922 23.8301 52.9922 23.2246C52.9922 21.9277 54.0293 21.248 56.1035 21.1855L57.1934 21.1504V20.752C57.1934 20.248 57.084 19.877 56.8652 19.6387C56.6504 19.3965 56.3047 19.2754 55.8281 19.2754C55.293 19.2754 54.6875 19.4395 54.0117 19.7676L53.7129 19.0234C54.0293 18.8516 54.375 18.7168 54.75 18.6191C55.1289 18.5215 55.5078 18.4727 55.8867 18.4727C56.6523 18.4727 57.2188 18.6426 57.5859 18.9824C57.957 19.3223 58.1426 19.8672 58.1426 20.6172V25H57.4219ZM55.2246 24.3145C55.8301 24.3145 56.3047 24.1484 56.6484 23.8164C56.9961 23.4844 57.1699 23.0195 57.1699 22.4219V21.8418L56.1973 21.8828C55.4238 21.9102 54.8652 22.0312 54.5215 22.2461C54.1816 22.457 54.0117 22.7871 54.0117 23.2363C54.0117 23.5879 54.1172 23.8555 54.3281 24.0391C54.543 24.2227 54.8418 24.3145 55.2246 24.3145ZM66.1992 18.4609C66.4844 18.4609 66.7402 18.4844 66.9668 18.5312L66.832 19.4336C66.5664 19.375 66.332 19.3457 66.1289 19.3457C65.6094 19.3457 65.1641 19.5566 64.793 19.9785C64.4258 20.4004 64.2422 20.9258 64.2422 21.5547V25H63.2695V18.5781H64.0723L64.1836 19.7676H64.2305C64.4688 19.3496 64.7559 19.0273 65.0918 18.8008C65.4277 18.5742 65.7969 18.4609 66.1992 18.4609ZM70.8809 25.1172C69.9316 25.1172 69.1816 24.8281 68.6309 24.25C68.084 23.6719 67.8105 22.8691 67.8105 21.8418C67.8105 20.8066 68.0645 19.9844 68.5723 19.375C69.084 18.7656 69.7695 18.4609 70.6289 18.4609C71.4336 18.4609 72.0703 18.7266 72.5391 19.2578C73.0078 19.7852 73.2422 20.4824 73.2422 21.3496V21.9648H68.8184C68.8379 22.7188 69.0273 23.291 69.3867 23.6816C69.75 24.0723 70.2598 24.2676 70.916 24.2676C71.6074 24.2676 72.291 24.123 72.9668 23.834V24.7012C72.623 24.8496 72.2969 24.9551 71.9883 25.0176C71.6836 25.084 71.3145 25.1172 70.8809 25.1172ZM70.6172 19.2754C70.1016 19.2754 69.6895 19.4434 69.3809 19.7793C69.0762 20.1152 68.8965 20.5801 68.8418 21.1738H72.1992C72.1992 20.5605 72.0625 20.0918 71.7891 19.7676C71.5156 19.4395 71.125 19.2754 70.6172 19.2754ZM76.3125 25L73.875 18.5781H74.918L76.3008 22.3867C76.6133 23.2773 76.7969 23.8555 76.8516 24.1211H76.8984C76.9414 23.9141 77.0762 23.4863 77.3027 22.8379C77.5332 22.1855 78.0469 20.7656 78.8438 18.5781H79.8867L77.4492 25H76.3125ZM81.8906 25H80.918V18.5781H81.8906V25ZM80.8359 16.8379C80.8359 16.6152 80.8906 16.4531 81 16.3516C81.1094 16.2461 81.2461 16.1934 81.4102 16.1934C81.5664 16.1934 81.7012 16.2461 81.8145 16.3516C81.9277 16.457 81.9844 16.6191 81.9844 16.8379C81.9844 17.0566 81.9277 17.2207 81.8145 17.3301C81.7012 17.4355 81.5664 17.4883 81.4102 17.4883C81.2461 17.4883 81.1094 17.4355 81 17.3301C80.8906 17.2207 80.8359 17.0566 80.8359 16.8379ZM86.666 25.1172C85.7168 25.1172 84.9668 24.8281 84.416 24.25C83.8691 23.6719 83.5957 22.8691 83.5957 21.8418C83.5957 20.8066 83.8496 19.9844 84.3574 19.375C84.8691 18.7656 85.5547 18.4609 86.4141 18.4609C87.2188 18.4609 87.8555 18.7266 88.3242 19.2578C88.793 19.7852 89.0273 20.4824 89.0273 21.3496V21.9648H84.6035C84.623 22.7188 84.8125 23.291 85.1719 23.6816C85.5352 24.0723 86.0449 24.2676 86.7012 24.2676C87.3926 24.2676 88.0762 24.123 88.752 23.834V24.7012C88.4082 24.8496 88.082 24.9551 87.7734 25.0176C87.4688 25.084 87.0996 25.1172 86.666 25.1172ZM86.4023 19.2754C85.8867 19.2754 85.4746 19.4434 85.166 19.7793C84.8613 20.1152 84.6816 20.5801 84.627 21.1738H87.9844C87.9844 20.5605 87.8477 20.0918 87.5742 19.7676C87.3008 19.4395 86.9102 19.2754 86.4023 19.2754ZM95.9355 25L94.7578 21.2324C94.6836 21.002 94.5449 20.4785 94.3418 19.6621H94.2949C94.1387 20.3457 94.002 20.873 93.8848 21.2441L92.6719 25H91.5469L89.7949 18.5781H90.8145C91.2285 20.1914 91.543 21.4199 91.7578 22.2637C91.9766 23.1074 92.1016 23.6758 92.1328 23.9688H92.1797C92.2227 23.7461 92.291 23.459 92.3848 23.1074C92.4824 22.752 92.5664 22.4707 92.6367 22.2637L93.8145 18.5781H94.8691L96.0176 22.2637C96.2363 22.9355 96.3848 23.5 96.4629 23.957H96.5098C96.5254 23.8164 96.5664 23.5996 96.6328 23.3066C96.7031 23.0137 97.1113 21.4375 97.8574 18.5781H98.8652L97.0898 25H95.9355Z" fill="white"/>
</svg>
