<svg width="241" height="40" viewBox="0 0 241 40" fill="none" xmlns="http://www.w3.org/2000/svg">
<rect width="241" height="40" rx="10" fill="#515151"/>
<path d="M169.906 22.1094H165.547V18.9688H169.906V14.668H173.059V18.9688H177.418V22.1094H173.059V26.3398H169.906V22.1094Z" fill="white"/>
<path d="M79.9551 25H78.9707L77.2422 19.2637C77.1602 19.0098 77.0684 18.6895 76.9668 18.3027C76.8652 17.916 76.8125 17.6836 76.8086 17.6055C76.7227 18.1211 76.5859 18.6855 76.3984 19.2988L74.7227 25H73.7383L71.459 16.4336H72.5137L73.8672 21.7246C74.0547 22.4668 74.1914 23.1387 74.2773 23.7402C74.3828 23.0254 74.5391 22.3262 74.7461 21.6426L76.2812 16.4336H77.3359L78.9473 21.6895C79.1348 22.2949 79.293 22.9785 79.4219 23.7402C79.4961 23.1855 79.6367 22.5098 79.8438 21.7129L81.1914 16.4336H82.2461L79.9551 25ZM86.3711 18.4609C86.6562 18.4609 86.9121 18.4844 87.1387 18.5312L87.0039 19.4336C86.7383 19.375 86.5039 19.3457 86.3008 19.3457C85.7812 19.3457 85.3359 19.5566 84.9648 19.9785C84.5977 20.4004 84.4141 20.9258 84.4141 21.5547V25H83.4414V18.5781H84.2441L84.3555 19.7676H84.4023C84.6406 19.3496 84.9277 19.0273 85.2637 18.8008C85.5996 18.5742 85.9688 18.4609 86.3711 18.4609ZM89.3125 25H88.3398V18.5781H89.3125V25ZM88.2578 16.8379C88.2578 16.6152 88.3125 16.4531 88.4219 16.3516C88.5312 16.2461 88.668 16.1934 88.832 16.1934C88.9883 16.1934 89.123 16.2461 89.2363 16.3516C89.3496 16.457 89.4062 16.6191 89.4062 16.8379C89.4062 17.0566 89.3496 17.2207 89.2363 17.3301C89.123 17.4355 88.9883 17.4883 88.832 17.4883C88.668 17.4883 88.5312 17.4355 88.4219 17.3301C88.3125 17.2207 88.2578 17.0566 88.2578 16.8379ZM93.4492 24.3145C93.6211 24.3145 93.7871 24.3027 93.9473 24.2793C94.1074 24.252 94.2344 24.2246 94.3281 24.1973V24.9414C94.2227 24.9922 94.0664 25.0332 93.8594 25.0645C93.6562 25.0996 93.4727 25.1172 93.3086 25.1172C92.0664 25.1172 91.4453 24.4629 91.4453 23.1543V19.334H90.5254V18.8652L91.4453 18.4609L91.8555 17.0898H92.418V18.5781H94.2812V19.334H92.418V23.1133C92.418 23.5 92.5098 23.7969 92.6934 24.0039C92.877 24.2109 93.1289 24.3145 93.4492 24.3145ZM98.3301 25.1172C97.3809 25.1172 96.6309 24.8281 96.0801 24.25C95.5332 23.6719 95.2598 22.8691 95.2598 21.8418C95.2598 20.8066 95.5137 19.9844 96.0215 19.375C96.5332 18.7656 97.2188 18.4609 98.0781 18.4609C98.8828 18.4609 99.5195 18.7266 99.9883 19.2578C100.457 19.7852 100.691 20.4824 100.691 21.3496V21.9648H96.2676C96.2871 22.7188 96.4766 23.291 96.8359 23.6816C97.1992 24.0723 97.709 24.2676 98.3652 24.2676C99.0566 24.2676 99.7402 24.123 100.416 23.834V24.7012C100.072 24.8496 99.7461 24.9551 99.4375 25.0176C99.1328 25.084 98.7637 25.1172 98.3301 25.1172ZM98.0664 19.2754C97.5508 19.2754 97.1387 19.4434 96.8301 19.7793C96.5254 20.1152 96.3457 20.5801 96.291 21.1738H99.6484C99.6484 20.5605 99.5117 20.0918 99.2383 19.7676C98.9648 19.4395 98.5742 19.2754 98.0664 19.2754ZM109.422 25L109.229 24.0859H109.182C108.861 24.4883 108.541 24.7617 108.221 24.9062C107.904 25.0469 107.508 25.1172 107.031 25.1172C106.395 25.1172 105.895 24.9531 105.531 24.625C105.172 24.2969 104.992 23.8301 104.992 23.2246C104.992 21.9277 106.029 21.248 108.104 21.1855L109.193 21.1504V20.752C109.193 20.248 109.084 19.877 108.865 19.6387C108.65 19.3965 108.305 19.2754 107.828 19.2754C107.293 19.2754 106.688 19.4395 106.012 19.7676L105.713 19.0234C106.029 18.8516 106.375 18.7168 106.75 18.6191C107.129 18.5215 107.508 18.4727 107.887 18.4727C108.652 18.4727 109.219 18.6426 109.586 18.9824C109.957 19.3223 110.143 19.8672 110.143 20.6172V25H109.422ZM107.225 24.3145C107.83 24.3145 108.305 24.1484 108.648 23.8164C108.996 23.4844 109.17 23.0195 109.17 22.4219V21.8418L108.197 21.8828C107.424 21.9102 106.865 22.0312 106.521 22.2461C106.182 22.457 106.012 22.7871 106.012 23.2363C106.012 23.5879 106.117 23.8555 106.328 24.0391C106.543 24.2227 106.842 24.3145 107.225 24.3145ZM118.199 18.4609C118.484 18.4609 118.74 18.4844 118.967 18.5312L118.832 19.4336C118.566 19.375 118.332 19.3457 118.129 19.3457C117.609 19.3457 117.164 19.5566 116.793 19.9785C116.426 20.4004 116.242 20.9258 116.242 21.5547V25H115.27V18.5781H116.072L116.184 19.7676H116.23C116.469 19.3496 116.756 19.0273 117.092 18.8008C117.428 18.5742 117.797 18.4609 118.199 18.4609ZM122.881 25.1172C121.932 25.1172 121.182 24.8281 120.631 24.25C120.084 23.6719 119.811 22.8691 119.811 21.8418C119.811 20.8066 120.064 19.9844 120.572 19.375C121.084 18.7656 121.77 18.4609 122.629 18.4609C123.434 18.4609 124.07 18.7266 124.539 19.2578C125.008 19.7852 125.242 20.4824 125.242 21.3496V21.9648H120.818C120.838 22.7188 121.027 23.291 121.387 23.6816C121.75 24.0723 122.26 24.2676 122.916 24.2676C123.607 24.2676 124.291 24.123 124.967 23.834V24.7012C124.623 24.8496 124.297 24.9551 123.988 25.0176C123.684 25.084 123.314 25.1172 122.881 25.1172ZM122.617 19.2754C122.102 19.2754 121.689 19.4434 121.381 19.7793C121.076 20.1152 120.896 20.5801 120.842 21.1738H124.199C124.199 20.5605 124.062 20.0918 123.789 19.7676C123.516 19.4395 123.125 19.2754 122.617 19.2754ZM128.312 25L125.875 18.5781H126.918L128.301 22.3867C128.613 23.2773 128.797 23.8555 128.852 24.1211H128.898C128.941 23.9141 129.076 23.4863 129.303 22.8379C129.533 22.1855 130.047 20.7656 130.844 18.5781H131.887L129.449 25H128.312ZM133.891 25H132.918V18.5781H133.891V25ZM132.836 16.8379C132.836 16.6152 132.891 16.4531 133 16.3516C133.109 16.2461 133.246 16.1934 133.41 16.1934C133.566 16.1934 133.701 16.2461 133.814 16.3516C133.928 16.457 133.984 16.6191 133.984 16.8379C133.984 17.0566 133.928 17.2207 133.814 17.3301C133.701 17.4355 133.566 17.4883 133.41 17.4883C133.246 17.4883 133.109 17.4355 133 17.3301C132.891 17.2207 132.836 17.0566 132.836 16.8379ZM138.666 25.1172C137.717 25.1172 136.967 24.8281 136.416 24.25C135.869 23.6719 135.596 22.8691 135.596 21.8418C135.596 20.8066 135.85 19.9844 136.357 19.375C136.869 18.7656 137.555 18.4609 138.414 18.4609C139.219 18.4609 139.855 18.7266 140.324 19.2578C140.793 19.7852 141.027 20.4824 141.027 21.3496V21.9648H136.604C136.623 22.7188 136.812 23.291 137.172 23.6816C137.535 24.0723 138.045 24.2676 138.701 24.2676C139.393 24.2676 140.076 24.123 140.752 23.834V24.7012C140.408 24.8496 140.082 24.9551 139.773 25.0176C139.469 25.084 139.1 25.1172 138.666 25.1172ZM138.402 19.2754C137.887 19.2754 137.475 19.4434 137.166 19.7793C136.861 20.1152 136.682 20.5801 136.627 21.1738H139.984C139.984 20.5605 139.848 20.0918 139.574 19.7676C139.301 19.4395 138.91 19.2754 138.402 19.2754ZM147.936 25L146.758 21.2324C146.684 21.002 146.545 20.4785 146.342 19.6621H146.295C146.139 20.3457 146.002 20.873 145.885 21.2441L144.672 25H143.547L141.795 18.5781H142.814C143.229 20.1914 143.543 21.4199 143.758 22.2637C143.977 23.1074 144.102 23.6758 144.133 23.9688H144.18C144.223 23.7461 144.291 23.459 144.385 23.1074C144.482 22.752 144.566 22.4707 144.637 22.2637L145.814 18.5781H146.869L148.018 22.2637C148.236 22.9355 148.385 23.5 148.463 23.957H148.51C148.525 23.8164 148.566 23.5996 148.633 23.3066C148.703 23.0137 149.111 21.4375 149.857 18.5781H150.865L149.09 25H147.936Z" fill="white"/>
</svg>
